<svg xmlns="http://www.w3.org/2000/svg" viewBox="0 0 761.51 242.64"><title>Element 6</title><g style="isolation:isolate"><g id="Ebene_2" data-name="Ebene 2"><g id="parts"><path d="M657.39,96.41c-1.48-4.39-3-10.93-3-10.93V73h-52.2V85.48s-1.47,6.54-3,10.93-1.7,26-1.7,26v42h61.51v-42S658.86,100.8,657.39,96.41Z" style="fill:#c1774d"/><path d="M629.72,73H602.23V85.5h52.21V73Z" style="fill:#7e4e34"/><path d="M637.88,110.41c-1.1-6.77-6.26-11.56-11.53-10.71s-8.66,7-7.56,13.8,6.26,11.56,11.53,10.71S639,117.18,637.88,110.41Zm-8.36,10.7s1.48-2.22-1.46-5.53c-7.43-7.39-.95-12.79-.95-12.79-1.37,3.39-.78,6.42,2.71,10.76C634.18,118.94,629.52,121.11,629.52,121.11Z" style="fill:#edba8d"/><path d="M629.72,73H602.23V85.5h52.21V73Z" style="fill:#b26d4f;opacity:0.7000000000000001"/><path d="M588.9,96.41C587.43,92,586,85.48,586,85.48V73h-52.2V85.48s-1.47,6.54-3,10.93-1.7,26-1.7,26v42h61.51v-42S590.38,100.8,588.9,96.41Z" style="fill:#c1774d"/><path d="M561.23,73H533.75V85.5H586V73Z" style="fill:#7e4e34"/><path d="M569.4,110.41c-1.1-6.77-6.26-11.56-11.53-10.71s-8.66,7-7.56,13.8,6.26,11.56,11.53,10.71S570.49,117.18,569.4,110.41ZM561,121.11s1.48-2.22-1.46-5.53c-7.43-7.39-1-12.79-1-12.79-1.37,3.39-.78,6.42,2.71,10.76C565.7,118.94,561,121.11,561,121.11Z" style="fill:#edba8d"/><path d="M561.23,73H533.75V85.5H586V73Z" style="fill:#b26d4f;opacity:0.7000000000000001"/><polygon points="175.53 92.97 157.02 92.97 154.01 109.91 178.54 109.91 175.53 92.97" style="fill:#e7e6e6"/><polygon points="157.02 90.33 175.53 90.33 178.54 69.17 154.01 69.17 157.02 90.33" style="fill:#e7e6e6"/><polygon points="166.27 62.86 166.27 62.86 154.01 69.17 178.54 69.17 166.27 62.86" style="fill:#d1d2d4"/><polygon points="166.27 62.86 166.27 62.86 160.35 69.17 172.2 69.17 166.27 62.86" style="fill:#e7e6e6"/><path d="M168,61.76c0-.47-.75-.85-1.68-.85s-1.67.38-1.67.85c0,.3.29.56.73.71v3.06h1.89V62.47C167.66,62.32,168,62.06,168,61.76Z" style="fill:#e7e6e6"/><path d="M182.75,91V87.83c1.53,0,2.05-.52,2.05-2.06V74.29c0-1.55-.45-2-2-2h-6.86V69.17h6.86c3.3,0,5.12,1.82,5.12,5.12V85.77C187.92,89,186,91,182.75,91Z" style="fill:#c17e58"/><polygon points="154.01 69.17 147.18 69.17 156.14 84.13 154.01 69.17" style="fill:#d1d2d4"/><polygon points="178.54 109.91 175.53 92.97 166.28 92.97 166.28 109.91 178.54 109.91" style="fill:#bdbec0"/><polygon points="170.74 92.97 161.81 92.97 160.35 109.91 172.2 109.91 170.74 92.97" style="fill:#d1d2d4"/><polygon points="166.28 69.17 166.28 90.33 175.53 90.33 178.54 69.17 166.28 69.17" style="fill:#bdbec0"/><polygon points="161.81 90.33 170.74 90.33 172.2 69.17 160.35 69.17 161.81 90.33" style="fill:#d1d2d4"/><rect x="157.02" y="90.33" width="18.5" height="2.64" style="fill:#f39c20"/><rect x="507.51" y="166.03" width="254" height="76.61" style="fill:#f0c39b"/><rect x="5.62" y="120.73" width="501.88" height="121.9" style="fill:#f0c39b"/><rect x="5.62" y="120.73" width="501.88" height="121.9" style="fill:#f0c39b"/><rect y="109.87" width="513.13" height="2.72" style="fill:#785545"/><rect x="750.26" y="166.03" width="11.25" height="76.61" style="fill:#7e4e34"/><rect x="507.51" y="161.48" width="254" height="16.3" style="fill:#cc7f56"/><rect x="507.51" y="158.76" width="254" height="2.72" style="fill:#785545"/><rect x="8.86" y="106.07" width="6.42" height="3.79" rx="0.41" ry="0.41" style="fill:#231f20"/><path d="M115.23,89.33H92.89V17.73a1.24,1.24,0,0,0-1.24-1.24H10.11a1.25,1.25,0,0,0-1.25,1.24V108H115.23Z" style="fill:#d0d2d3"/><rect x="62.14" y="106.07" width="6.42" height="3.79" rx="0.41" ry="0.41" style="fill:#231f20"/><rect x="123.65" y="106.07" width="6.42" height="3.79" rx="0.41" ry="0.41" style="fill:#231f20"/><rect x="75.85" y="106.07" width="6.42" height="3.79" rx="0.41" ry="0.41" style="fill:#231f20"/><rect x="39.33" y="33.02" width="75.89" height="59.33" style="fill:#bbbdbf"/><rect x="88.33" y="54.33" width="6.86" height="2.89" style="fill:#a6a8ab"/><polygon points="91.76 53 88.33 53 88.33 53 88.33 55.89 88.33 55.89 91.76 55.89 95.19 55.89 95.19 53 91.76 53" style="fill:#808284"/><rect x="79.72" y="41.59" width="24.08" height="7.9" rx="0.92" ry="0.92" style="fill:#404042"/><path d="M100.88,47.36a.29.29,0,0,0,0-.09.91.91,0,0,0-.9-.73H83.56a.92.92,0,0,0-.92.92v6.07a.93.93,0,0,0,.92.92H100a.92.92,0,0,0,.92-.92V47.46h0Z" style="fill:#d0d2d3"/><rect x="79.72" y="41.59" width="24.08" height="7.9" rx="0.92" ry="0.92" style="fill:#404042"/><rect x="75.49" y="31.94" width="32.54" height="10.68" rx="1.24" ry="1.24" style="fill:#dbdddd"/><rect x="75.49" y="38.75" width="32.54" height="1.55" style="fill:#ededed;mix-blend-mode:multiply"/><rect x="79.72" y="42.63" width="24.08" height="1.55" style="fill:#d0d2d3;mix-blend-mode:multiply"/><rect x="82.64" y="49.5" width="18.24" height="1.55" style="fill:#ededed;mix-blend-mode:multiply"/><path d="M135.13,16.92a1.53,1.53,0,0,0-1-.43H40.38A1.47,1.47,0,0,0,38.9,18V33a1.51,1.51,0,0,0,.43,1l4.24,4.24a1.49,1.49,0,0,0,1,.44h85.22a1.49,1.49,0,0,0,1-.44l4.24-4.24a1.51,1.51,0,0,0,.43-1V18A1.53,1.53,0,0,0,135.13,16.92Z" style="fill:#d0d2d3"/><path d="M135.11,16.92a1.53,1.53,0,0,0-1.05-.43H59.65V34.07l4.24,4.24a1.49,1.49,0,0,0,1,.44h64.88a1.49,1.49,0,0,0,1.05-.44l4.24-4.24a1.47,1.47,0,0,0,.43-1V18A1.48,1.48,0,0,0,135.11,16.92Z" style="fill:#e7e8e9"/><path d="M130.07,90.57V108H55a1.24,1.24,0,0,1-1.24-1.24V90.57A1.23,1.23,0,0,1,55,89.33h73.84A1.23,1.23,0,0,1,130.07,90.57Z" style="fill:#e7e8e9"/><path d="M64.67,21a1,1,0,1,1-1.05-1A1,1,0,0,1,64.67,21Z" style="fill:#be202e"/><path d="M70.61,28.67h0l.29-.07h0l.27-.1h0l.26-.12h0l.25-.15,0,0L72,28h0a3.23,3.23,0,0,0-2-5.74,3.24,3.24,0,0,0-2.7,1.45v0l-.15.26v0a2.1,2.1,0,0,0-.13.26v0c0,.09-.07.19-.1.28v0a2.45,2.45,0,0,0-.08.29h0a2.72,2.72,0,0,0,0,.3h0c0,.1,0,.21,0,.31s0,.2,0,.3h0c0,.1,0,.2,0,.3h0a2.45,2.45,0,0,0,.08.29h0a2.31,2.31,0,0,0,.1.28v0c0,.09.08.18.13.27v0l.15.26h0a2.48,2.48,0,0,0,.19.26h0A3.48,3.48,0,0,0,68,28h0a2,2,0,0,0,.25.18l0,0,.26.15h0c.09,0,.17.09.26.12h0l.27.1h0l.29.07h0l.3,0h.62Z" style="fill:#6e6f70"/><path d="M128.82,24l.08,0,.11,0,.08,0,.1,0,.07,0,.11,0,.06,0,.11-.07,0,0,.12-.09,0,0,.12-.11h0A2,2,0,0,0,127,20.61h0a.08.08,0,0,1,0,0l-.09.11-.07.09,0,.07-.06.1,0,.06a1.17,1.17,0,0,1,0,.11l0,.07a.49.49,0,0,0,0,.11l0,.07,0,.13s0,0,0,.06a.9.9,0,0,0,0,.16v0a1.34,1.34,0,0,0,0,.4v0a1.1,1.1,0,0,0,0,.16s0,0,0,.06l0,.13,0,.07a.76.76,0,0,0,0,.11l0,.07a1.17,1.17,0,0,1,0,.11l0,.06.06.1,0,.06a.36.36,0,0,0,.07.1l.06.07.07.07.07.06a.46.46,0,0,0,.07.07l.09.07.07.05.1.06.07,0,.09,0,.09,0,.09,0,.09,0,.1,0,.09,0,.12,0h.53Z" style="fill:#6e6f70"/><path d="M123,24l.09,0,.1,0,.08,0,.1,0,.08,0,.1,0,.06,0,.11-.06,0,0,.1-.08.05,0,.1-.1h0a2,2,0,0,0-2.82-2.82h0l0,0-.1.12-.06.08-.06.08-.05.08,0,.08a663960693773.33,663960693773.33,0,0,1-.08.18l0,.09a.3.3,0,0,0,0,.1s0,.05,0,.08l0,.11s0,.05,0,.08,0,.07,0,.11V22a.43.43,0,0,1,0,.05.43.43,0,0,0,0,.05v.15s0,.07,0,.1,0,.06,0,.09l0,.11s0,.05,0,.08a.3.3,0,0,0,0,.1l0,.09a.36.36,0,0,0,0,.09.3.3,0,0,0,0,.08.22.22,0,0,0,0,.08l.05.09.06.08.06.08a.3.3,0,0,0,.08.08l.05.06a.46.46,0,0,0,.07.07l.07.06.1.08.06,0,.1.06.07,0,.1,0,.07,0,.11,0,.08,0,.11,0,.08,0,.13,0h.53Z" style="fill:#6e6f70"/><rect x="86.75" y="20.92" width="21.26" height="9.16" rx="0.41" ry="0.41" style="fill:#404042"/><path d="M107.6,20.7H87.17a.64.64,0,0,0-.64.63v8.33a.64.64,0,0,0,.64.64H107.6a.64.64,0,0,0,.63-.64V21.33A.63.63,0,0,0,107.6,20.7Zm0,9.16H87.17a.2.2,0,0,1-.2-.2V21.33a.2.2,0,0,1,.2-.19H107.6a.2.2,0,0,1,.19.19v8.33A.2.2,0,0,1,107.6,29.86Z" style="fill:#a6a8ab"/><path d="M43.57,38.31a1.49,1.49,0,0,0,1,.44h85.2a1.49,1.49,0,0,0,1.05-.44l4.24-4.24H39.33Z" style="fill:#ededed;mix-blend-mode:multiply"/><rect x="8.86" y="96.57" width="121.21" height="0.97" style="fill:#231f20"/><path d="M109.49,48.37h-6.23a1.84,1.84,0,0,1-1.84-1.84h0a1.84,1.84,0,0,1,1.84-1.84h6.23Z" style="fill:#a6a8ab"/><path d="M128.11,49.15H109.57a2.78,2.78,0,0,1-2.93-2.62h0a2.78,2.78,0,0,1,2.93-2.62h18.54a2.79,2.79,0,0,1,2.94,2.62h0A2.79,2.79,0,0,1,128.11,49.15Z" style="fill:#404042"/><path d="M101.27,83.15V83h1.65a3,3,0,0,0,3-3V77.31a3,3,0,0,0-3-3h-1.65V73s0-.08,0-.11H81.8s0,.07,0,.11v10.2A6.19,6.19,0,0,0,88,89.33h7.1A6.19,6.19,0,0,0,101.27,83.15Zm3.16-3.56a1.94,1.94,0,0,1-1.94,1.94h-1.22V75.85h1.22a1.94,1.94,0,0,1,1.94,1.94Z" style="fill:#fff"/><path d="M108.52,6.18v.13h-1.66a3,3,0,0,0-3,3V12a3,3,0,0,0,3,3h1.66v1.53H128s0-.07,0-.11V6.18A6.18,6.18,0,0,0,121.81,0H114.7A6.18,6.18,0,0,0,108.52,6.18Zm-3.17,3.55a1.93,1.93,0,0,1,1.94-1.93h1.23v5.68h-1.23a1.94,1.94,0,0,1-1.94-1.94Z" style="fill:#fff"/><path d="M79.16,6.18v.13H77.5a3,3,0,0,0-3,3V12a3,3,0,0,0,3,3h1.66v1.53H98.62s0-.07,0-.11V6.18A6.19,6.19,0,0,0,92.44,0h-7.1A6.18,6.18,0,0,0,79.16,6.18ZM76,9.73A1.93,1.93,0,0,1,77.93,7.8h1.23v5.68H77.93A1.94,1.94,0,0,1,76,11.54Z" style="fill:#fff"/><path d="M49.79,6.18v.13H48.13a3,3,0,0,0-3,3V12a3,3,0,0,0,3,3h1.66v1.42s0,.07,0,.11H69.26V6.18A6.18,6.18,0,0,0,63.08,0H56A6.18,6.18,0,0,0,49.79,6.18ZM46.63,9.73A1.93,1.93,0,0,1,48.57,7.8h1.22v5.68H48.57a1.94,1.94,0,0,1-1.94-1.94Z" style="fill:#fff"/><path d="M20.43,6.18v.13H18.77a3,3,0,0,0-2.95,3V12a3,3,0,0,0,2.95,3h1.66v1.42s0,.07,0,.11H39.9V6.18A6.18,6.18,0,0,0,33.72,0H26.61A6.18,6.18,0,0,0,20.43,6.18ZM17.27,9.73A1.92,1.92,0,0,1,19.2,7.8h1.23v5.68H19.2a1.93,1.93,0,0,1-1.93-1.94Z" style="fill:#fff"/><path d="M463.87,34.73l20.89,9.35,2.8,5.64,21.15-1.46a8.22,8.22,0,0,0-2.79-1.69s2-10.91,1.57-14Z" style="fill:#81808a"/><path d="M425.1,80.63l6.23-48.27A5.85,5.85,0,0,1,437,27.41h64.39a4.81,4.81,0,0,1,.77.06l0,0,6.3,1.67.17,7.93L506,33.4l-.81-.18-9.51,47.46a6.38,6.38,0,0,1-6,4.9H434.28L432.57,87l-4.52-1.66A4.25,4.25,0,0,1,425.1,80.63Z" style="fill:#bfc4cb"/><path d="M432.08,30.26A5.87,5.87,0,0,1,437,27.41h64.39a4.81,4.81,0,0,1,.77.06l0,0,6.3,1.67.17,7.93L506,33.4l-.81-.18-1.49,7.44c-10.28-.51-23.69-1.06-24.48-.8-1.27.42-41-9.11-41-9.11Z" style="fill:#fff"/><path d="M430.38,82.69a4.15,4.15,0,0,0,4.22,4.8h65.19a5.67,5.67,0,0,0,5.46-4.8l6.34-48.89a4.16,4.16,0,0,0-4.22-4.8H442.18a5.67,5.67,0,0,0-5.46,4.8Z" style="fill:#ecedec"/><g style="opacity:0.5"><polygon points="457.39 68.52 468.6 72.52 467.42 87.49 445.66 87.49 457.39 68.52" style="fill:#5c5a62"/></g><polygon points="456.13 80.45 460.94 95.59 490.7 95.59 480.97 69.12 457.39 68.52 456.13 80.45" style="fill:#bfc4cb"/><polygon points="457.39 68.52 465.75 95.3 492.16 95.3 482.53 68.52 457.39 68.52" style="fill:#fff"/><path d="M493.14,109.87V93.8A2.84,2.84,0,0,0,490.32,91H428.21a2.84,2.84,0,0,0-2.83,2.83v16.07Z" style="fill:#bfc4cb"/><path d="M513.13,109.87v-16A3,3,0,0,0,510.19,91H446v18.9Z" style="fill:#f8faf7"/><rect y="128.88" width="11.25" height="113.75" style="fill:#7e4e34"/><polyline points="513.13 128.88 501.88 128.88 501.88 242.64 513.13 242.64 513.13 128.88" style="fill:#7e4e34"/><rect y="112.59" width="513.13" height="16.3" style="fill:#cc7f56"/><polygon points="72.32 128.88 103.08 128.88 96.63 112.58 65.87 112.58 72.32 128.88" style="fill:#edba8d;opacity:0.6000000000000001"/><polygon points="53.67 128.88 66.42 128.88 59.97 112.58 47.22 112.58 53.67 128.88" style="fill:#edba8d;opacity:0.6000000000000001"/><polygon points="408.04 128.88 420.79 128.88 414.33 112.58 401.58 112.58 408.04 128.88" style="fill:#edba8d;opacity:0.6000000000000001"/><polygon points="560.22 177.77 590.99 177.77 584.53 161.47 553.77 161.47 560.22 177.77" style="fill:#edba8d;opacity:0.6000000000000001"/><polygon points="541.57 177.77 554.32 177.77 547.87 161.47 535.12 161.47 541.57 177.77" style="fill:#edba8d;opacity:0.6000000000000001"/><circle cx="253.64" cy="186.04" r="41.4" style="fill:#fff;stroke:#cc7f56;stroke-miterlimit:10;stroke-width:3.95093888044357px"/><ellipse cx="252.75" cy="176.77" rx="13.22" ry="16.97" transform="translate(-25.01 42.69) rotate(-9.2)" style="fill:#7e4e34"/><path d="M254.36,189.29s6.38-3,.42-10.35c-4.78-5.93-5.58-10.07-3.71-14.7,0,0-8.85,7.38,1.31,17.48C256.39,186.25,254.36,189.29,254.36,189.29Z" style="fill:#f3f2f3"/><path d="M255.39,193.54c7.21-1.11,11.89-9.5,10.44-18.76a19,19,0,0,0-7.14-12.48,17.73,17.73,0,0,1,3.37,13.85c-.78,5-4.07,8.81-8.36,9.89a25.69,25.69,0,0,1-9.92.5,7.43,7.43,0,0,1-1.47-.4C245.3,191.24,250.3,194.31,255.39,193.54Z" style="fill:#492e1b;opacity:0.5;isolation:isolate"/><path d="M282.53,170.36a3.93,3.93,0,0,0-1.72-1.94h0a12.81,12.81,0,0,0-4.44-1.47,3.17,3.17,0,0,1-1.33,2.42,2.12,2.12,0,0,1,.36.64c.52,1.55-1.49,3.53-5.17,5.49a66.72,66.72,0,0,1-15.29,5.38l-2.58.57A67.38,67.38,0,0,1,238.51,183c-4.39-.06-7.37-.87-7.89-2.42s2.88-4.16,8.87-6.9l.2-1.6c-7.21,2.56-13,6.54-14.49,9.15h0a3.32,3.32,0,0,0-.42,2.77c1.1,3.19,8.15,4.52,17.62,3.84a90.44,90.44,0,0,0,14.17-2.23A88,88,0,0,0,270,181.31c.7-.29,1.38-.59,2-.9C279.3,177.06,283.54,173.29,282.53,170.36Z" style="fill:#f39c20"/><path d="M268.6,167.63a1.85,1.85,0,0,1,.19-1.15c-1.93,0-4.11.05-6,.19l.67,1.09C265.3,167.63,267.25,167.6,268.6,167.63Z" style="fill:#f39c20"/><path d="M282.53,170.36a3.93,3.93,0,0,0-1.72-1.94c3.94,4.45-2.68,8.64-12.44,12.4a89.6,89.6,0,0,1-22.74,5.74c-23.39,2.48-20.54-5.19-20.46-5.37a3.31,3.31,0,0,0-.42,2.76c1.1,3.2,8.15,4.53,17.62,3.85a91.34,91.34,0,0,0,14.16-2.24A88.9,88.9,0,0,0,270,181.3c.7-.3,1.38-.59,2-.9C279.3,177.06,283.54,173.29,282.53,170.36Z" style="fill:#f4bd7e"/><path id="_Pfad_" data-name=" Pfad " d="M229.58,179.85c-8.18,7.08,18.27,6,27,1.84C237.73,185.87,226.52,183.58,229.58,179.85Z" style="fill:#f4bd7e"/><ellipse cx="272.41" cy="167.22" rx="3.47" ry="2.64" transform="translate(-14.67 26.68) rotate(-5.46)" style="fill:#7e4e34"/><path d="M270,168.25s1,1,2.05-.52c.88-1.26,1.64-1.66,2.66-1.59,0,0-2-1.25-3.35,1.27-.65,1.06-1.36.84-1.36.84Z" style="fill:#fff"/><path d="M231.05,204.27a1,1,0,0,1-.34-.06.67.67,0,0,1-.25-.13c-.06,0-.08-.09-.06-.12s.06-.06.17-.06a1.31,1.31,0,0,0,.68-.34,7.58,7.58,0,0,0,1-.89c.36-.37.73-.77,1.11-1.24a14.28,14.28,0,0,0,1-1.43,10.74,10.74,0,0,0,.76-1.42,3.5,3.5,0,0,0,.29-1.26c0-.14-.07-.2-.21-.2a2.64,2.64,0,0,0-1.14.48,16.39,16.39,0,0,0-1.78,1.32,27.68,27.68,0,0,0-2.06,1.94,19.08,19.08,0,0,0-2,2.35,14.58,14.58,0,0,0-1.45,2.55,6.5,6.5,0,0,0-.58,2.53,2.59,2.59,0,0,0,.09.68,1.5,1.5,0,0,0,.33.59,2.09,2.09,0,0,0,.64.42,2.58,2.58,0,0,0,1,.15,5.72,5.72,0,0,0,1.92-.31,7.26,7.26,0,0,0,1.6-.74,8.4,8.4,0,0,0,1.27-1c.37-.34.68-.63.93-.9l.56-.59c.12-.14.18-.14.18,0a1.33,1.33,0,0,1-.18.45,6.58,6.58,0,0,1-.55.86,9.62,9.62,0,0,1-.85,1.06,6.24,6.24,0,0,1-1.16,1,6.42,6.42,0,0,1-1.46.78,4.93,4.93,0,0,1-1.71.31,3.77,3.77,0,0,1-1.11-.22,3.7,3.7,0,0,1-1.29-.71,4.07,4.07,0,0,1-1.51-3.32,5.89,5.89,0,0,1,.56-2.37,15.7,15.7,0,0,1,1.45-2.52,21,21,0,0,1,1.95-2.37,22.51,22.51,0,0,1,2.14-2,15.31,15.31,0,0,1,1.95-1.38,3.33,3.33,0,0,1,1.43-.53,1.39,1.39,0,0,1,.5.19,4.46,4.46,0,0,1,.74.48,4.31,4.31,0,0,1,.67.68,1.2,1.2,0,0,1,.29.78,2.85,2.85,0,0,1-.26,1,12.8,12.8,0,0,1-.68,1.33,15.1,15.1,0,0,1-1,1.47,9.65,9.65,0,0,1-1.2,1.35,7.55,7.55,0,0,1-1.27,1A2.45,2.45,0,0,1,231.05,204.27Z" style="fill:#7e4e34"/><path d="M235.92,208a1.29,1.29,0,0,1-.5-.14,2.09,2.09,0,0,1-.59-.39,2,2,0,0,1-.49-.62,1.72,1.72,0,0,1-.2-.83,1.9,1.9,0,0,1,.15-.78,4.19,4.19,0,0,1,.39-.76,4.92,4.92,0,0,1,.57-.71c.22-.22.44-.44.67-.64a2.77,2.77,0,0,1,.26-.73,3.28,3.28,0,0,1,1.31-1.3,1.75,1.75,0,0,1,.93-.22,1.45,1.45,0,0,1,.45.13,1.79,1.79,0,0,1,.54.37,2.4,2.4,0,0,1,.48.62,1.64,1.64,0,0,1,.2.87,4.19,4.19,0,0,1-.4,1.7,9,9,0,0,1-1,1.68,6,6,0,0,1-1.34,1.27A2.85,2.85,0,0,1,235.92,208Zm-.33-.54a2,2,0,0,0,.93-.4,6.37,6.37,0,0,0,1.23-1.09,7.28,7.28,0,0,0,1.06-1.58,4.32,4.32,0,0,0,.44-1.91,2.09,2.09,0,0,0,0-.25,1,1,0,0,0-.06-.31.66.66,0,0,0-.16-.26.46.46,0,0,0-.31-.13.78.78,0,0,0-.49.25,2.45,2.45,0,0,0-.53.67,1.36,1.36,0,0,1,.53.22.92.92,0,0,1,.31.31,1,1,0,0,1,.12.28c0,.07,0,.12-.06.12a.1.1,0,0,1-.08-.05s-.09,0-.22,0a1,1,0,0,0-.49.21c-.24.19-.47.38-.69.59v.17a1,1,0,0,0,0,.24.4.4,0,0,1,0,.15c0,.06,0,.09-.15.08a1,1,0,0,1-.36-.16,9.45,9.45,0,0,0-1,1.32,2.18,2.18,0,0,0-.41,1.18,1.09,1.09,0,0,0,0,.25c0,.09.12.14.27.14Z" style="fill:#7e4e34"/><path d="M245.68,197.24a1.22,1.22,0,0,1,.45.13,1.88,1.88,0,0,1,.43.31.92.92,0,0,1,.26.35.23.23,0,0,1,0,.3,18.81,18.81,0,0,0-2.23,2.74,33.81,33.81,0,0,0-1.95,3.26,5.59,5.59,0,0,0,1.56-.25,3.78,3.78,0,0,0,1.38-.71c.14-.09.2-.17.2-.22a.2.2,0,0,1,.08-.15s.09,0,.11.06a.63.63,0,0,1,0,.31,1.24,1.24,0,0,1-.11.42.8.8,0,0,1-.28.37,2.69,2.69,0,0,1-.65.34,4.71,4.71,0,0,1-.91.25,7.9,7.9,0,0,1-1.68.09.39.39,0,0,0-.06.13.45.45,0,0,1-.06.12,3.34,3.34,0,0,1,.21.68,5.82,5.82,0,0,1,.11,1.18,6,6,0,0,1-.26,1.74,9.94,9.94,0,0,1-.67,1.66,7.11,7.11,0,0,1-.83,1.27,1.6,1.6,0,0,1-.81.58h-.09a.75.75,0,0,1-.36-.1,2,2,0,0,1-.4-.23,1.64,1.64,0,0,1-.33-.31.52.52,0,0,1-.12-.34,9.25,9.25,0,0,1,.62-3.21,32,32,0,0,1,1.52-3.63.53.53,0,0,1-.17-.25c0-.06.12-.14.43-.23.45-.89.91-1.72,1.38-2.52a24.56,24.56,0,0,1,1.37-2.09,15.55,15.55,0,0,1,1.13-1.44C245.29,197.43,245.52,197.24,245.68,197.24ZM242,207a4.11,4.11,0,0,0-.15-1.1,25.74,25.74,0,0,0-1.34,3.31,7.82,7.82,0,0,0-.48,2.31.5.5,0,0,0,0,.17,1.14,1.14,0,0,0,.57-.5,6.15,6.15,0,0,0,.64-1.15,13.3,13.3,0,0,0,.52-1.5A6.73,6.73,0,0,0,242,207Z" style="fill:#7e4e34"/><path d="M249.63,197.24a1.17,1.17,0,0,1,.45.13,1.94,1.94,0,0,1,.44.31,1,1,0,0,1,.26.35.24.24,0,0,1,0,.3,18.18,18.18,0,0,0-2.23,2.74,33.91,33.91,0,0,0-2,3.26,5.6,5.6,0,0,0,1.57-.25,3.94,3.94,0,0,0,1.38-.71c.14-.09.2-.17.2-.22a.18.18,0,0,1,.08-.15s.09,0,.11.06a.78.78,0,0,1,0,.31,1.53,1.53,0,0,1-.11.42.87.87,0,0,1-.28.37,2.69,2.69,0,0,1-.65.34,5,5,0,0,1-.92.25,7.8,7.8,0,0,1-1.67.09.4.4,0,0,0-.07.13.27.27,0,0,1-.06.12,3.37,3.37,0,0,1,.22.68,5.82,5.82,0,0,1,.11,1.18,5.7,5.7,0,0,1-.27,1.74,10.83,10.83,0,0,1-.66,1.66,6.66,6.66,0,0,1-.84,1.27,1.56,1.56,0,0,1-.81.58h-.09a.78.78,0,0,1-.36-.1,2,2,0,0,1-.4-.23,2.42,2.42,0,0,1-.33-.31.58.58,0,0,1-.12-.34,9.49,9.49,0,0,1,.62-3.21,36.11,36.11,0,0,1,1.52-3.63.53.53,0,0,1-.17-.25c0-.06.12-.14.44-.23.44-.89.91-1.72,1.38-2.52a24.63,24.63,0,0,1,1.36-2.09c.36-.5.73-1,1.13-1.44S249.49,197.24,249.63,197.24ZM246,207a3.75,3.75,0,0,0-.16-1.1,27.22,27.22,0,0,0-1.33,3.31,7.5,7.5,0,0,0-.48,2.31,1,1,0,0,0,0,.17,1.11,1.11,0,0,0,.58-.5,6.73,6.73,0,0,0,.63-1.15,13.35,13.35,0,0,0,.53-1.5A6.73,6.73,0,0,0,246,207Z" style="fill:#7e4e34"/><path d="M254.35,204.49a13.43,13.43,0,0,1-.95,1,14.83,14.83,0,0,1-1.16,1.09,8,8,0,0,1-1.21.85,2.29,2.29,0,0,1-1.1.34,1.36,1.36,0,0,1-.55-.17,2.48,2.48,0,0,1-.59-.43,3.79,3.79,0,0,1-.48-.58,1.34,1.34,0,0,1-.2-.63,2.59,2.59,0,0,1,.2-1,6.58,6.58,0,0,1,.53-1,8.38,8.38,0,0,1,.71-1c.27-.29.52-.54.76-.77s.42-.36.64-.53a1,1,0,0,1,.39-.2,1.15,1.15,0,0,1,.57.17,2.44,2.44,0,0,1,.54.4,2.28,2.28,0,0,1,.42.5.77.77,0,0,1,.17.43,1.75,1.75,0,0,1-.31.83,5.15,5.15,0,0,1-.76.86,5.52,5.52,0,0,1-.91.7,1.63,1.63,0,0,1-.79.3.43.43,0,0,1-.25-.07.59.59,0,0,1-.2-.15,5.6,5.6,0,0,0-.3.71,3.22,3.22,0,0,0-.11.62.55.55,0,0,0,.07.31.18.18,0,0,0,.15.11,2.44,2.44,0,0,0,1.12-.31,7.72,7.72,0,0,0,1.18-.77,11.65,11.65,0,0,0,1.11-1c.36-.35.67-.68.92-1Zm-2-1.79a.91.91,0,0,0-.5.22,4.19,4.19,0,0,0-.62.57c-.23.27-.43.53-.63.81s-.41.61-.58.92a2.68,2.68,0,0,0,1-.52,5.63,5.63,0,0,0,.91-.85,2.86,2.86,0,0,0,.56-.81C252.56,202.81,252.52,202.7,252.33,202.7Z" style="fill:#7e4e34"/><path d="M259.64,204.49a13.43,13.43,0,0,1-.95,1,14.83,14.83,0,0,1-1.16,1.09,8.49,8.49,0,0,1-1.21.85,2.29,2.29,0,0,1-1.1.34,1.36,1.36,0,0,1-.55-.17,2.48,2.48,0,0,1-.59-.43,3.79,3.79,0,0,1-.48-.58,1.34,1.34,0,0,1-.2-.63,2.59,2.59,0,0,1,.2-1,6.58,6.58,0,0,1,.53-1,8.38,8.38,0,0,1,.71-1c.27-.29.52-.54.76-.77s.42-.36.64-.53a1,1,0,0,1,.39-.2,1.15,1.15,0,0,1,.57.17,2.44,2.44,0,0,1,.54.4,2.28,2.28,0,0,1,.42.5.77.77,0,0,1,.17.43,1.75,1.75,0,0,1-.31.83,5.15,5.15,0,0,1-.76.86,5.52,5.52,0,0,1-.91.7,1.63,1.63,0,0,1-.79.3.43.43,0,0,1-.25-.07.59.59,0,0,1-.2-.15,5.6,5.6,0,0,0-.3.71,3.22,3.22,0,0,0-.11.62.55.55,0,0,0,.07.31.18.18,0,0,0,.15.11,2.44,2.44,0,0,0,1.12-.31,8.24,8.24,0,0,0,1.18-.77,13,13,0,0,0,1.11-1c.36-.35.67-.68.92-1Zm-2-1.79a.91.91,0,0,0-.5.22,3.75,3.75,0,0,0-.62.57c-.23.27-.44.53-.64.81s-.4.61-.57.92a2.64,2.64,0,0,0,1-.52,5.69,5.69,0,0,0,.92-.85,2.83,2.83,0,0,0,.55-.81c.11-.23.08-.34-.1-.34Z" style="fill:#7e4e34"/><path d="M267.08,207.71a.85.85,0,0,0,.06.36.25.25,0,0,0,.13.12l.12.08a.22.22,0,0,1,.06.17c0,.14-.1.2-.31.19a1.88,1.88,0,0,1-.66-.2,2.28,2.28,0,0,1-.67-.53,1.2,1.2,0,0,1-.31-.81,5.4,5.4,0,0,1,.14-1c.09-.39.22-.81.37-1.28s.33-.91.53-1.38.39-.91.59-1.32c-.34.41-.75.87-1.18,1.42s-.9,1.11-1.37,1.72l-1.36,1.8c-.45.59-.85,1.16-1.19,1.67s-.64,1-.86,1.34a2.14,2.14,0,0,0-.32.74c0,.26-.08.39-.25.4a.78.78,0,0,1-.53-.21,3.11,3.11,0,0,1-.53-.62,1.55,1.55,0,0,1-.24-.78,2.68,2.68,0,0,1,.29-1c.2-.45.47-1,.79-1.58s.7-1.27,1.12-2,.84-1.43,1.27-2.14.85-1.44,1.27-2.14.79-1.35,1.12-1.94.59-1.1.79-1.52a2.47,2.47,0,0,0,.29-.91.44.44,0,0,0-.15-.39.78.78,0,0,0-.53-.14,3.24,3.24,0,0,0-1.33.31,7.4,7.4,0,0,0-1.37.84,11.43,11.43,0,0,0-2.32,2.49,8.5,8.5,0,0,0-.73,1.27,2.76,2.76,0,0,0-.27,1,.48.48,0,0,0,.1.35.28.28,0,0,0,.2.1.8.8,0,0,1,.2.07.13.13,0,0,1,.09.15c0,.14-.11.2-.31.22a1.38,1.38,0,0,1-.66-.17,1.79,1.79,0,0,1-.67-.58,1.34,1.34,0,0,1-.31-.94,3.54,3.54,0,0,1,.26-1.2,6.25,6.25,0,0,1,.72-1.35,9.59,9.59,0,0,1,1-1.33,8.08,8.08,0,0,1,1.33-1.15,7.39,7.39,0,0,1,1.49-.8,4,4,0,0,1,1.55-.31,2.32,2.32,0,0,1,1,.23,4.13,4.13,0,0,1,1.68,1.3,1.29,1.29,0,0,1,.28.73,3.49,3.49,0,0,1-.34,1.35,18.39,18.39,0,0,1-.86,1.72c-.34.62-.74,1.27-1.17,2l-1.32,2.09c-.44.7-.86,1.4-1.24,2.08a18.77,18.77,0,0,0-1,2c.3-.45.66-1,1.06-1.52s.82-1.17,1.27-1.76.88-1.19,1.33-1.76.87-1.09,1.26-1.54a11.81,11.81,0,0,1,1-1.08,1.3,1.3,0,0,1,.67-.42h0a.56.56,0,0,1,.29.06,1.38,1.38,0,0,1,.69.53,1.36,1.36,0,0,1,.26.69,1.33,1.33,0,0,1-.19.5c-.12.25-.28.54-.46.9s-.39.74-.62,1.16a11.7,11.7,0,0,0-.62,1.29,10.24,10.24,0,0,0-.47,1.27A6.68,6.68,0,0,0,267.08,207.71Z" style="fill:#f39c20"/><path d="M275,204.49a11.57,11.57,0,0,1-.94,1,13.36,13.36,0,0,1-1.17,1.09,7.49,7.49,0,0,1-1.21.85,2.22,2.22,0,0,1-1.1.34,1.36,1.36,0,0,1-.54-.17,2.29,2.29,0,0,1-.59-.43,3.29,3.29,0,0,1-.48-.58,1.24,1.24,0,0,1-.2-.63,2.59,2.59,0,0,1,.2-1,6.58,6.58,0,0,1,.53-1,7.34,7.34,0,0,1,.71-1c.26-.29.51-.54.76-.77a8.18,8.18,0,0,1,.64-.53.93.93,0,0,1,.38-.2,1.16,1.16,0,0,1,.58.17,2.44,2.44,0,0,1,.54.4,2.28,2.28,0,0,1,.42.5.85.85,0,0,1,.17.43,1.75,1.75,0,0,1-.31.83,5.64,5.64,0,0,1-.76.86,5.52,5.52,0,0,1-.91.7,1.7,1.7,0,0,1-.8.3.4.4,0,0,1-.24-.07.74.74,0,0,1-.21-.15,7.52,7.52,0,0,0-.29.71,3.22,3.22,0,0,0-.11.62.64.64,0,0,0,.06.31.21.21,0,0,0,.16.11,2.4,2.4,0,0,0,1.11-.31,7.72,7.72,0,0,0,1.18-.77,13.13,13.13,0,0,0,1.12-1c.36-.35.67-.68.92-1Zm-2-1.79a.91.91,0,0,0-.5.22,4.19,4.19,0,0,0-.62.57c-.23.27-.43.53-.64.81s-.4.61-.57.92a2.64,2.64,0,0,0,1-.52,5.69,5.69,0,0,0,.92-.85,2.86,2.86,0,0,0,.56-.81C273.24,202.81,273.19,202.7,273,202.7Z" style="fill:#f39c20"/><path d="M281.45,197.69a.69.69,0,0,1,.45.3,2.53,2.53,0,0,1,.34.57,1,1,0,0,1,.07.54c0,.16-.15.24-.35.21a1.63,1.63,0,0,1-.45-.08l-.44-.13-.65-.17c-.26-.06-.63-.12-1.08-.18a30,30,0,0,0-1.68,2.77c-.54,1-1,1.94-1.44,2.89a23.65,23.65,0,0,0-1,2.65,7.45,7.45,0,0,0-.39,2.05c0,.15,0,.23.06.25s.07.07.07.17-.08.14-.22.11a1.4,1.4,0,0,1-.48-.22,1.79,1.79,0,0,1-.48-.51,1.48,1.48,0,0,1-.22-.81,7.55,7.55,0,0,1,.34-2,22.34,22.34,0,0,1,.9-2.45c.37-.87.78-1.74,1.24-2.62s.93-1.71,1.4-2.48c-.78-.08-1.44-.13-2-.16l-1.35-.08-.8,0h-.38a.34.34,0,0,1-.17-.05l-.11-.08a.29.29,0,0,1-.07-.12c0-.06.17-.11.49-.16s.76-.07,1.29-.11,1.1-.06,1.75-.07l1.91-.05c.28-.42.54-.81.79-1.15s.5-.65.72-.9a5.48,5.48,0,0,1,.59-.59.65.65,0,0,1,.43-.21,1.25,1.25,0,0,1,.54.12,1.07,1.07,0,0,1,.41.28.81.81,0,0,1,.21.33.29.29,0,0,1,0,.24,10.61,10.61,0,0,0-.78.86,10,10,0,0,0-.8,1c.27,0,.54,0,.77,0Z" style="fill:#f39c20"/></g></g></g></svg>