<svg xmlns="http://www.w3.org/2000/svg" viewBox="0 0 761.51 311.7"><title>Element 47</title><g style="isolation:isolate"><g id="Ebene_2" data-name="Ebene 2"><g id="dash_2"><path d="M657.39,165.47c-1.48-4.39-3-10.93-3-10.93V142h-52.2v12.51s-1.47,6.54-3,10.93-1.7,26-1.7,26v42h61.51v-42S658.86,169.86,657.39,165.47Z" style="fill:#c1774d"/><path d="M629.72,142H602.23v12.53h52.21V142Z" style="fill:#7e4e34"/><path d="M637.88,179.47c-1.1-6.77-6.26-11.56-11.53-10.71s-8.66,7-7.56,13.8,6.26,11.56,11.53,10.71S639,186.24,637.88,179.47Zm-8.36,10.71s1.48-2.23-1.46-5.54c-7.43-7.39-.95-12.79-.95-12.79-1.37,3.39-.78,6.42,2.71,10.76C634.18,188,629.52,190.18,629.52,190.18Z" style="fill:#edba8d"/><path d="M629.72,142H602.23v12.53h52.21V142Z" style="fill:#b26d4f;opacity:0.7000000000000001"/><path d="M588.9,165.47c-1.47-4.39-2.95-10.93-2.95-10.93V142h-52.2v12.51s-1.47,6.54-3,10.93-1.7,26-1.7,26v42h61.51v-42S590.38,169.86,588.9,165.47Z" style="fill:#c1774d"/><path d="M561.23,142H533.75v12.53H586V142Z" style="fill:#7e4e34"/><path d="M569.4,179.47c-1.1-6.77-6.26-11.56-11.53-10.71s-8.66,7-7.56,13.8,6.26,11.56,11.53,10.71S570.49,186.24,569.4,179.47ZM561,190.18s1.48-2.23-1.46-5.54c-7.43-7.39-1-12.79-1-12.79-1.37,3.39-.78,6.42,2.71,10.76C565.7,188,561,190.18,561,190.18Z" style="fill:#edba8d"/><path d="M561.23,142H533.75v12.53H586V142Z" style="fill:#b26d4f;opacity:0.7000000000000001"/><polygon points="253.02 151.97 244.99 151.97 244.99 124.79 255.93 124.79 253.02 151.97" style="fill:#d2d3d5"/><path d="M256.12,121.17a1.22,1.22,0,0,0-1.21-1.06H245V125h10.84a1.23,1.23,0,0,0,1.22-1.23v-1.37a1.22,1.22,0,0,0-.93-1.19" style="fill:#e7e8e9"/><rect x="292.83" y="143.78" width="65.21" height="48.8" style="fill:#4b6791"/><g id="TMXPUw"><path d="M339.22,102.07H339a3.12,3.12,0,0,0-2,3.05c0,.42-.21,1.09-.5,1.21a3.28,3.28,0,0,0-2.37,3l-3.51,1.1c-.45-.38-1-.93-1.7-1.43-1.33-1-5.39,5.16-7,5.73s-.48-5.65-2.28-5.26c.69-1.32.84-2.37,0-3.32s-2-.87-3.14-.57c-.45.11-.89.3-1.34.43-21.06,6-25.74,23-28.06,28.71-2,4.8-3.85,9.63-5.94,14.37-1.88,4.27-3.82,8.47-4.58,13.17a10.45,10.45,0,0,0,.63,6.13,6,6,0,0,0,4.09,3.58,47.47,47.47,0,0,0,8.16,1c3.35.16,6.7,0,10.05,0,.31,0,.78,0,.89.13.53.83,1.21.47,1.87.34l2.17-.47a50.15,50.15,0,0,1,6.94-1.1,29.64,29.64,0,0,1,6-.24c5.25.65,10.52,1.22,15.79,1.52,8.05.47,16.12.7,24.18,1a48.55,48.55,0,0,0,5.1-.27c1-.06,1.4-.65,1.64-1.62a117.82,117.82,0,0,0,3.38-26.72,103.57,103.57,0,0,0-3.17-27.3,9.82,9.82,0,0,0-3.95-6,80.44,80.44,0,0,0-9.35-5.48C347.16,104.86,343.14,103.57,339.22,102.07Z" style="fill:#6789bf"/></g><path d="M341.37,130.73H297.43s-5.55,11.74-2.06,21c2,5.3,47,3.61,47.64,3.51C343,155.24,341.17,156.77,341.37,130.73Z" style="fill:#fff"/><g id="v0SpG2"><path d="M338,150.1c-.12.88-.62,1.14-1.5,1.25-8.92,1.12-20.26,2.24-29.15,3.5-1.6.23-3.08,1.18-4.66,1.66-1.77.54-3.59.92-5.74,1.46-.35-8.41-2.23-14.67.46-27.24,0,0-5.42,8.71-6.22,22,0,.25.3.51.5.74,1.62,1.87-.71,4.51,13.92,5.39,7.77.47,13.36-3.39,19.67-3.31,6.68.07,11.85.21,14.71.19.4,0,2.19,2.61,2.8,3.2.08-.64.13-1,.23-1.76l4.84,2.1c-.73-1.32-5.21-7.36-5.54-9.64-.9-6.3,1.19-21.51,1.24-21.9C343.5,127.77,340,136.91,338,150.1Z" style="fill:#4b6791;fill-rule:evenodd"/></g><path d="M320.09,156.65a2.67,2.67,0,0,1,1.55,1.87,23.87,23.87,0,0,1,1,8.56,11,11,0,0,1-1.4,3.74,1.07,1.07,0,0,1-1,.72c-.93.48.16.52.18.8.93,1.24,2.22,1,3.49.79.49-.08,1-.25,1.45-.38a1.36,1.36,0,0,0,.71-.94c1.81-5.34,2-10.63-.48-15.85a.84.84,0,0,0-.83-.51,11.56,11.56,0,0,0-3.8.21C320.49,155.8,320.05,156,320.09,156.65Z" style="fill:#eb5c44;fill-rule:evenodd"/><path d="M289.78,165.47l-38.09,0c-.3,0-.63-.06-.88.19a6.36,6.36,0,0,0,.93.87,70.52,70.52,0,0,1,9.13,6.9,2.91,2.91,0,0,0,2.58.66c4.58-.69,9.12-1.6,13.66-2.56a6.25,6.25,0,0,1,4,.78,13.19,13.19,0,0,0,4.4.66c4.62.31,9.25.15,13.88.18.08-.41-.2-.67-.45-.9A77.85,77.85,0,0,0,289.78,165.47Z" style="fill:#785545;fill-rule:evenodd"/><rect x="214.85" y="152.04" width="94.99" height="13.7" rx="0.43" ry="0.43" style="fill:#c17e58"/><path d="M305.19,156.34a31.33,31.33,0,0,1-5.81.13c-2.38-.15-6.16-2-5.77-4.18.21-1.16.22.16,1.3-.27a9.31,9.31,0,0,1,1.83-.29c3.68-.38,7.35-.81,11-1.08a6.26,6.26,0,0,1,3.24.49,47.24,47.24,0,0,1,4,3,1.25,1.25,0,0,1,.41.86v10.22a.53.53,0,0,1-.53.53H292.54c-.29,0-.33-.14-.09-.3,0,0,8.06-5.33,10.21-6.53a38.74,38.74,0,0,0,3.26-2.2c.24-.17.19-.33-.1-.36A5,5,0,0,0,305.19,156.34Z" style="fill:#ba896f;fill-rule:evenodd"/><path d="M340.46,137.81c3.89-16.4,10.55-23.82,13.68-25.49,2.21-1.18,4.27-.81,6.49,0h0a2.52,2.52,0,0,0-1.69-3.14c-2.7-.81-5.45-1.12-8.06.27-4.65,2.48-10,7.85-14.06,25.09Z" style="fill:#fff"/><path d="M296.2,148.27,302.08,137c-.24-11.71.59-24.58,7.09-28.86,0,0-3.11-1-4.31,0a19,19,0,0,0-6.3,11.18C297.4,125,295.48,129.93,296.2,148.27Z" style="fill:#fff"/><polygon points="236.96 151.97 245.38 151.97 245.38 124.79 234.06 124.79 236.96 151.97" style="fill:#fff"/><path d="M233.87,121.17a1.22,1.22,0,0,1,1.21-1.06H245.7V125H234.16a1.23,1.23,0,0,1-1.23-1.23v-1.37a1.22,1.22,0,0,1,.94-1.19" style="fill:#fff"/><polygon points="253.02 151.97 244.99 151.97 244.99 124.79 255.93 124.79 253.02 151.97" style="fill:#fff"/><path d="M256.12,121.17a1.22,1.22,0,0,0-1.21-1.06H245V125h10.84a1.23,1.23,0,0,0,1.22-1.23v-1.37a1.22,1.22,0,0,0-.93-1.19" style="fill:#fff"/><polygon points="314.97 91.39 318.58 102.53 322.11 113.38 337.06 99.17 339.09 91.02 314.97 91.39" style="fill:#fbceb2"/><polygon points="253.02 151.97 244.99 151.97 244.99 124.79 255.93 124.79 253.02 151.97" style="fill:#d2d3d5;opacity:0.30000000000000004"/><path d="M256.12,121.17a1.22,1.22,0,0,0-1.21-1.06H245V125h10.84a1.23,1.23,0,0,0,1.22-1.23v-1.37a1.22,1.22,0,0,0-.93-1.19" style="fill:#e7e8e9;opacity:0.30000000000000004"/><polygon points="234.87 132.36 235.65 139.73 254.33 139.73 255.12 132.36 234.87 132.36" style="fill:#7e4e34"/><path d="M251.59,136a6.6,6.6,0,1,0-6.6,6.6A6.59,6.59,0,0,0,251.59,136Z" style="fill:#fff;stroke:#f39c20;stroke-miterlimit:10;stroke-width:0.858999950763245px"/><path d="M348,105.34c-1.35-.66-3.08-1.3-4.58-1.93a1.6,1.6,0,0,0-1.32.33c-1.27,1.14-2.47,2.37-3.71,3.56-2,1.89-3.86,3.85-5.91,5.63a21.06,21.06,0,0,1-4,2.59c-2.1,1.09-2.49,1.91-1.48,4.39-1,.28-1.95.58-2.92.81-.64.15-1.32.12-1.94.29a2.93,2.93,0,0,1-3.54-1.28,24.89,24.89,0,0,1-2.16-4.24,4.88,4.88,0,0,1,.13-2.64,32.65,32.65,0,0,1,1.23-3.52c.54-1.42.24-2.67-.83-3.29s-2.16-.2-3.24,1c-3.35,3.65-3.95,10.61-.62,15.34a8.7,8.7,0,0,0,6.28,3.85c5.54.65,10.22-1.35,14.3-4.93a28.57,28.57,0,0,0,3.23-3.54C339.72,114.24,344.38,106.8,348,105.34Z" style="fill:#304b72;fill-rule:evenodd"/><path d="M327.77,120.22a16.26,16.26,0,0,0,8.17-6.81c-1.68.94-3.37,1.85-5,2.83-1.24.72-1.25.75-2-.51-.38-.63-.78-1.23-1.17-1.85a.75.75,0,0,0-.76-.1c-1.6.52-3.24.89-4.82,1.48l0,0c.16.65.82.76,1.25,1.12C324.87,117.65,326.39,118.86,327.77,120.22Z" style="fill:#d74939;fill-rule:evenodd"/><path d="M322.17,115.26c1.57.16,2.9-.73,4.36-1a12.26,12.26,0,0,0,1.22-.36c-1-1.93-2.05-3.85-3.24-6.09-.54,2-1,3.68-1.43,5.34a3.38,3.38,0,0,1-.7,1.69Z" style="fill:#76281b;fill-rule:evenodd"/><path d="M327.77,120.22c-.33-1.14-1.38-1.6-2.17-2.3-1.08-1-2.75-3-4-3.7-.85,0-.05-1.15-.53-1.81a1.71,1.71,0,0,0-2.35-.38,38,38,0,0,0-4.78,3.16.73.73,0,0,0-.19,1,8.64,8.64,0,0,0,2.81,4.86,5.1,5.1,0,0,0,4.35,1.18A22.86,22.86,0,0,0,327.77,120.22Z" style="fill:#f0826f;fill-rule:evenodd"/><path d="M313.71,116.22a1.22,1.22,0,0,1,.69-1.08,44.48,44.48,0,0,0,5.05-3.66,35.06,35.06,0,0,0-3.62-5.33c-1.26,2.81-2.39,7.59-3.44,10.31C312.77,116.26,313.49,115.79,313.71,116.22Z" style="fill:#76281b;fill-rule:evenodd"/><path d="M314.87,105.05a1,1,0,0,0-.23.51c-.81,3.32-2.51,10.46-2.55,10.71l.3.19a80.57,80.57,0,0,0,3-7.57c.13-.4.3-.78.55-1.45l4,5.7a9.34,9.34,0,0,0,1.19,1.58,1.51,1.51,0,0,0,1.22.33c.24-.07.48-.67.48-1a5.75,5.75,0,0,0-.38-1.43l-2.54-6s-1.45-4.38-1.44-4.43C316.86,103.34,316.45,103.8,314.87,105.05Z" style="fill:#eb5c44;fill-rule:evenodd"/><g id="PBlLJv"><path d="M322.45,115.13c1.11-2.09,1.14-4.59,2.1-6.89l5,8.84c5.62-2.6,10.44-5.82,13-11.62.57-1.28.69-2.2-.44-3.26-1.47-1.38-2.77-3-4.11-4.46-.5-.57-.85-.59-1.26.07-3,4.85-7.69,7.33-12.87,9.12-.4.14-1,.53-1,.87-.37,2.37-.65,4.9-.95,7.29C322.07,115.13,322.31,115.09,322.45,115.13Z" style="fill:#ef7d64;fill-rule:evenodd"/></g><path d="M325.92,102.46c-10.41.51-30.1-11.81-30.9-28L293.25,38.2a29.58,29.58,0,0,1,28-30.9h0a29.59,29.59,0,0,1,30.9,28l1.77,36.25C354.73,87.77,336.34,102,325.92,102.46Z" style="fill:#e6ac88"/><path d="M326.88,100.74c-10.42.54-30.14-11.74-31-27.94l-.77-10.39L294,36.56A29.58,29.58,0,0,1,322,5.59h0a29.58,29.58,0,0,1,31,27.94l1.86,36.24C355.65,86,337.29,100.2,326.88,100.74Z" style="fill:#fbceb2"/><path d="M361.58,51.21l-1.95,8.88v.5l.54,3.1a4.06,4.06,0,0,1-5.32,4.54l-.22-.07a1.26,1.26,0,0,1-.84-1.11l-1.06-20.67a1.24,1.24,0,0,1,.84-1.24l.9-.31A5.49,5.49,0,0,1,361.58,51.21Z" style="fill:#fbceb2"/><path d="M286.31,52.67l2.61,8.7.05.51L288.66,65a4.07,4.07,0,0,0,5.65,4.13l.21-.09c.47-.2.76-.67,1-1.44L295,46.92a2.65,2.65,0,0,0-1.18-.91l-.92-.24C288.45,45.6,285.08,48.58,286.31,52.67Z" style="fill:#fbceb2"/><path d="M311.73,51.34c.16,2-.83,3.7-2.21,3.81s-2.63-1.41-2.8-3.4.83-3.7,2.21-3.81S311.57,49.35,311.73,51.34Z" style="fill:#573517"/><path d="M309.12,50.21c.05.59-.25,1.09-.66,1.13s-.78-.42-.83-1,.25-1.1.66-1.13S309.07,49.62,309.12,50.21Z" style="fill:#fcece3"/><path d="M339.22,49.37c.16,2-.83,3.69-2.21,3.8s-2.63-1.41-2.79-3.4.82-3.69,2.2-3.8S339.06,47.38,339.22,49.37Z" style="fill:#573517"/><path d="M336.61,48.23c.05.6-.25,1.1-.66,1.13s-.78-.41-.83-1,.25-1.09.66-1.13S336.56,47.64,336.61,48.23Z" style="fill:#fcece3"/><path d="M359.86,52.38l-1.4,7v.4l.34,2.46c.34,2.43-1.66,4.39-3.64,3.57l-.14-.06a1,1,0,0,1-.56-.89l-.55-16.42a1,1,0,0,1,.59-1l.6-.23C357.84,46.21,360.52,49.07,359.86,52.38Z" style="fill:#e6ac88;opacity:0.8"/><path d="M288.46,54l2.25,6.81.06.4,0,2.48c0,2.45,2.19,4.16,4,3.1l.14-.08a1,1,0,0,0,.44-.95l-1.47-16.36a1,1,0,0,0-.69-.91l-.64-.16C289.71,47.65,287.4,50.82,288.46,54Z" style="fill:#e6ac88;opacity:0.8"/><path d="M305.17,4.85c-8.66-.12-25.51,7.71-18.61,43.82a.27.27,0,0,0,.11.18l2.95,2.09a5.66,5.66,0,0,1,2,2.5l3.37,8.5a.29.29,0,0,0,.55-.13c-.77-7.64-2.73-33.94,6.16-38.6a.31.31,0,0,1,.23,0,13.22,13.22,0,0,0,5.66,1s0,0,0,0S305,22.3,305.16,22c.23,0,4.58,1,6.39,1.19a53.08,53.08,0,0,0,5.88,0h-.05a31.77,31.77,0,0,1-6.16-2.5l-.59-.34a61.76,61.76,0,0,0,8.9,2.92c4.9.89,16.14,1.19,21.49,1.85,1.32.16,4.14.78,5,1.77,5.09,5.66,7.34,23.44,7.43,29.55a.28.28,0,0,0,.55.08L356.81,48a1.37,1.37,0,0,1,.48-.66l2.25-1.68a.28.28,0,0,0,.11-.17c6.62-32.76-31.12-56-54.33-40.69A.3.3,0,0,1,305.17,4.85Z" style="fill:#492e1b;isolation:isolate"/><g style="opacity:0.5"><path d="M309.61,39.61c2.32-.07,5.47-.27,6.16.93a2,2,0,0,1-.19,2.48h0a.37.37,0,0,1-.36.18c-1.34-.12-8.21-.65-11.38,1.17a18.85,18.85,0,0,0-3.52,3c-.41.42-1.14,0-1.09-.67s1.77-3.12,3.58-4.85S307.15,39.68,309.61,39.61Z" style="fill:#dfa17d"/></g><path d="M309.4,38.91c2.35-.08,5.55-.3,6.23.9a2,2,0,0,1-.2,2.49h0a.39.39,0,0,1-.37.18c-1.36-.11-8.31-.6-11.53,1.25a19.37,19.37,0,0,0-3.59,3c-.41.43-1.15,0-1.1-.66s1.81-3.14,3.66-4.88S306.91,39,309.4,38.91Z" style="fill:#573517"/><path d="M309.51,11.82a15.67,15.67,0,0,0,8.11,5.05c.31.07.49-.21.3-.37-2.3-1.85-4.54-4.06-5.25-6.52a26.25,26.25,0,0,0,6,2.74,49,49,0,0,0,15.64,2.83c.29,0,.45-.32.15-.41a35.16,35.16,0,0,1-7.45-3.3,14.34,14.34,0,0,1-3.5-2.59c1.52.46,3.07.89,4.64,1.28,1.82.44,3.69.74,5.5,1.21a9.54,9.54,0,0,0,3.91.44c.19,0,.3-.2.19-.32-1.45-1.71-4.26-2.58-6.16-4a35.65,35.65,0,0,1,8,2.12C338.31,9,337,8.11,335.57,7.27c5.68,1.5,10.32,4.28,11.82,8.45a13.73,13.73,0,0,0-4.94-2.91c-.85-.31-1.74-.59-2.62-.88.37.24.73.48,1.06.72a10.48,10.48,0,0,1,2.86,2.66s0,0,0,0c-.34-.11-.69-.21-1-.3-1.23-.32-2.47-.61-3.72-.88l-1.19-.24-2.32-.44a.55.55,0,0,0-.22,0,36.74,36.74,0,0,1-3.7-.78A51.25,51.25,0,0,0,336,15.47c.75.38,1.52.75,2.27,1.15a.08.08,0,0,1,0,0l1.18.56A13.54,13.54,0,0,1,343.28,19c-.33-.11-.67-.21-1-.3-3-1.27-6.44-1.72-9.8-2.29A28.34,28.34,0,0,1,336,17.8c1.65.85,3.21,1.81,4.71,2.78a19.4,19.4,0,0,0-5.17-1.73c-1.22-.26-2.45-.48-3.68-.69s-2.63-.49-4-.72c-3.32-.56-7-1.22-9.82-2.65a22.24,22.24,0,0,0,7.19,5.83s0,.07,0,.09c.56.17,1.11.33,1.67.48.07,0,.05.09,0,.08a22.36,22.36,0,0,1-5.06-1.14,29.23,29.23,0,0,1-10.38-4.69,10,10,0,0,1-4.25-6.54A19.69,19.69,0,0,0,309.51,11.82Z" style="fill:#b06b3f;opacity:0.35000000000000003"/><path d="M325.47,68a23.61,23.61,0,0,0,4.32-2.43,44.6,44.6,0,0,1-7.93,1.74c-2,.08-5.31-1.86-5.73-1.9C316.37,65.64,315.37,71.68,325.47,68Z" style="fill:#e6ac88;opacity:0.4"/><path d="M329.79,65.56s-3.18.56-6.39.89a13.4,13.4,0,0,1-4.85-.43,1.24,1.24,0,0,1-.9-1.32c.35-3.57,1.53-15.73,1.81-18.29h0a19.48,19.48,0,0,0-1.24,5.43c-.22,1.42-1.57,10.57-2,13a2.33,2.33,0,0,0,.08,1.2C317.59,69.73,327.54,66.21,329.79,65.56Z" style="fill:#dfa17d"/><path d="M334.41,85.44c-3.62,3.94-9.53,5.21-15.26,3.17a10.72,10.72,0,0,1-4.1-2.66,33.94,33.94,0,0,1-3.35-5.35c-.14-.34-.28-.69-.39-1a9.86,9.86,0,0,0-2-4,57.08,57.08,0,0,0,7.64.25,111.71,111.71,0,0,0,17.54-.91c.84-.06,1.68-.13,2.52-.22a15.34,15.34,0,0,0,3.68-.66C338.91,78,337.57,82,334.41,85.44Z" style="fill:#8c1812"/><path d="M325.39,81.78a42.51,42.51,0,0,0-5.53.11,19.58,19.58,0,0,0-3.16.47A6.93,6.93,0,0,0,313.61,84,20.26,20.26,0,0,0,315.05,86a10.72,10.72,0,0,0,4.1,2.66c5.73,2,11.64.77,15.26-3.17a16.12,16.12,0,0,0,1.15-1.2C333.68,82.16,327.74,81.87,325.39,81.78Z" style="fill:#ef775c"/><path d="M334.44,85.42a40.3,40.3,0,0,1-13.72.63,33.14,33.14,0,0,1-6-1.47.36.36,0,0,0-.25,0,1.29,1.29,0,0,0-.37.22c.27.4.59.77.9,1.15a10.72,10.72,0,0,0,4.1,2.66c5.49,2,11.38.86,15-2.7C334,85.9,334.52,85.55,334.44,85.42Z" style="fill:#fff"/><path d="M334.44,85.42c-.58.12-2,.37-2.59.46-2.11,3.74-8.39,3.87-13.09,2.56.13,0,.25.12.39.17,5.49,2,11.28.9,14.93-2.66C333.9,85.94,334.52,85.55,334.44,85.42Z" style="fill:#b9a998;opacity:0.6000000000000001"/><path d="M338.88,75.45c.24-.35.45-.73.66-1.11-.81.17-1.66.26-2.57.36s-1.68.16-2.52.22a111.71,111.71,0,0,1-17.54.91c-.6,0-3.73.11-6.52-.14a17,17,0,0,0,3.33,3,1.37,1.37,0,0,0,.46.21,38.14,38.14,0,0,0,10,1.16,31.88,31.88,0,0,0,13.85-3.54.24.24,0,0,0,.08-.06C338.41,76.11,338.65,75.79,338.88,75.45Z" style="fill:#fff"/><path d="M337,74.7c-.84.09-1.68.16-2.52.22a111.71,111.71,0,0,1-17.54.91c-.6,0-3.73.11-6.52-.14a19.78,19.78,0,0,0,1.43,1.46.51.51,0,0,1,.38-.36,33.57,33.57,0,0,1,5.76-.22c2.6-.06,5.18-.27,7.77-.45a63.84,63.84,0,0,0,6.91-.65,16.71,16.71,0,0,1,4.57-.4.5.5,0,0,1,.46.5c0,.39-.07.8-.1,1.18l.5-.26a.24.24,0,0,0,.08-.06c.26-.32.5-.64.73-1s.45-.73.66-1.11C338.73,74.51,337.88,74.6,337,74.7Z" style="fill:#b9a998;opacity:0.6000000000000001"/><path d="M319.89,83c-.19-.49-1-.49-1.46-.5a3.53,3.53,0,0,0-1.73.31.88.88,0,0,0-.31.3l-.1.11c-.61.84,1.06,1,1.56,1S320.27,84,319.89,83Z" style="fill:#ef7975;mix-blend-mode:screen"/><path d="M320.31,84.47c-.31,0-.71.56-.32.58S320.7,84.49,320.31,84.47Z" style="fill:#ef7975;mix-blend-mode:screen"/><path d="M316.18,90.67,317,91c.28.09.54.21.83.28.56.17,1.1.36,1.67.49a26.16,26.16,0,0,0,3.37.69,28.15,28.15,0,0,0,3.44.28,29.29,29.29,0,0,0,3.49-.12,11.77,11.77,0,0,1-3.47.8,15.32,15.32,0,0,1-3.58-.11,14.82,14.82,0,0,1-3.46-.9l-.42-.16-.21-.09-.2-.09-.8-.4a8.53,8.53,0,0,1-.76-.46C316.67,91,316.42,90.84,316.18,90.67Z" style="fill:#dfa17d"/><path d="M339.24,72.46a7,7,0,0,0,.85.65,3.73,3.73,0,0,1,.3.26c-1.51.33-3,.63-4.58.86-.84.15-1.7.29-2.56.39s-1.35.12-1.54.13h0a104.55,104.55,0,0,1-13.93.45c-1.76-.06-9.33.22-11.47-1.46a2.4,2.4,0,0,0,.87,1c.25.16.49.32.72.5A5.38,5.38,0,0,1,309,77.06c.33.86.68,1.72,1,2.58l.83,1.37c.36.61.71,1.22,1.08,1.83a20.28,20.28,0,0,0,1.3,2.16,11,11,0,0,0,3.12,3l.08.06h0a15.62,15.62,0,0,0,7.6,2.19c10.9.5,14.6-9.33,17.16-16.06a2.29,2.29,0,0,0,1.36.73A4.51,4.51,0,0,0,339.24,72.46Zm-4.83,13c-3.62,3.94-9.53,5.21-15.26,3.17a10.72,10.72,0,0,1-4.1-2.66,33.94,33.94,0,0,1-3.35-5.35c-.14-.34-.28-.69-.39-1a9.86,9.86,0,0,0-2-4,57.08,57.08,0,0,0,7.64.25,111.71,111.71,0,0,0,17.54-.91c.84-.06,1.68-.13,2.52-.22a15.34,15.34,0,0,0,3.68-.66C338.91,78,337.57,82,334.41,85.44Z" style="fill:#e6ac88"/><ellipse cx="244.82" cy="136.04" rx="2.52" ry="3.24" transform="translate(-18.6 40.9) rotate(-9.2)" style="fill:#7e4e34"/><path d="M250.5,134.82a.76.76,0,0,0-.33-.37h0a2.56,2.56,0,0,0-.84-.28.61.61,0,0,1-.26.46.75.75,0,0,1,.07.12c.1.3-.28.68-1,1.05a12.4,12.4,0,0,1-2.91,1l-.49.11a13.15,13.15,0,0,1-2.65.29c-.83,0-1.4-.17-1.5-.46s.55-.8,1.7-1.32l0-.31a5.86,5.86,0,0,0-2.77,1.75h0a.61.61,0,0,0-.08.53c.21.61,1.55.86,3.36.73a17.63,17.63,0,0,0,2.7-.42,17.31,17.31,0,0,0,2.57-.82l.38-.17C249.89,136.1,250.69,135.38,250.5,134.82Z" style="fill:#f39c20"/><path d="M247.84,134.3a.35.35,0,0,1,0-.22c-.37,0-.79,0-1.15,0l.13.21C247.21,134.3,247.59,134.3,247.84,134.3Z" style="fill:#f39c20"/><ellipse cx="248.57" cy="134.22" rx="0.66" ry="0.5" transform="translate(-11.64 24.26) rotate(-5.46)" style="fill:#7e4e34"/><rect x="214.85" y="163.06" width="91.69" height="2.97" style="fill:#edba8d"/><g id="il8WsX"><path d="M306.58,154.53c-1.41,1-2.49,1.84-3.68,2.51-2.82,1.57-11.3,7.05-12.65,8.34a.75.75,0,0,0,0,.7,3.76,3.76,0,0,0,.84.8c3,2.25,6,4.45,8.94,6.76a3.33,3.33,0,0,0,2.9.75c4.32-.83,8.64-1.68,13-2.41,1.4-.24,2.24-.18,3.66-.34a2.88,2.88,0,0,0,1.4-.35c1.41-1,2-4,1.92-6.86a22.55,22.55,0,0,0-.72-4.85,7,7,0,0,0-2.43-3.41s-6.48-5.87-8.5-6.9a6.24,6.24,0,0,0-3.23-.49c-3.69.27-7.36.7-11,1.08a10,10,0,0,0-1.83.28c-1.09.43-1.34.5-1.31,1.68s3.4,2.63,5.77,2.78a31.45,31.45,0,0,0,5.82-.13A8.34,8.34,0,0,1,306.58,154.53Z" style="fill:#fbceb2;fill-rule:evenodd"/></g><path d="M290.26,166.08a.75.75,0,0,1,0-.7,33.66,33.66,0,0,1,3.15-2.32c3,3.9,7.7,8.47,9.78,11.28l-.24,0a3.33,3.33,0,0,1-2.9-.75c-2.94-2.31-6-4.51-8.94-6.76A3.76,3.76,0,0,1,290.26,166.08Z" style="fill:#e6ac88;fill-rule:evenodd"/><g style="opacity:0.5"><path d="M334.24,36.55c-2.33.07-5.49.06-6.1,1.29a2,2,0,0,0,.34,2.47h0a.37.37,0,0,0,.36.16c1.34-.21,8.16-1.14,11.43.49a18.91,18.91,0,0,1,3.7,2.79c.43.4,1.13-.09,1-.73s-1.95-3-3.86-4.63S336.69,36.48,334.24,36.55Z" style="fill:#dfa17d"/></g><path d="M334.4,35.84c-2.35.06-5.55,0-6.16,1.27a2,2,0,0,0,.35,2.48h0a.4.4,0,0,0,.37.15c1.35-.2,8.26-1.1,11.59.56a19.7,19.7,0,0,1,3.76,2.81c.44.4,1.14-.08,1.06-.73s-2-3-3.94-4.65S336.89,35.78,334.4,35.84Z" style="fill:#573517"/><polygon points="175.53 162.03 157.02 162.03 154.01 178.97 178.54 178.97 175.53 162.03" style="fill:#e7e6e6"/><polygon points="157.02 159.39 175.53 159.39 178.54 138.23 154.01 138.23 157.02 159.39" style="fill:#e7e6e6"/><polygon points="166.27 131.92 166.27 131.92 154.01 138.23 178.54 138.23 166.27 131.92" style="fill:#d1d2d4"/><polygon points="166.27 131.92 166.27 131.92 160.35 138.23 172.2 138.23 166.27 131.92" style="fill:#e7e6e6"/><path d="M168,130.83c0-.48-.75-.86-1.68-.86s-1.67.38-1.67.86c0,.29.29.55.73.7v3.06h1.89v-3.06C167.66,131.38,168,131.12,168,130.83Z" style="fill:#e7e6e6"/><path d="M182.75,160v-3.12c1.53,0,2.05-.52,2.05-2.06V143.35c0-1.55-.45-2-2-2h-6.86v-3.12h6.86c3.3,0,5.12,1.82,5.12,5.12v11.48C187.92,158.07,186,160,182.75,160Z" style="fill:#c17e58"/><polygon points="154.01 138.23 147.18 138.23 156.14 153.19 154.01 138.23" style="fill:#d1d2d4"/><polygon points="178.54 178.97 175.53 162.03 166.28 162.03 166.28 178.97 178.54 178.97" style="fill:#bdbec0"/><polygon points="170.74 162.03 161.81 162.03 160.35 178.97 172.2 178.97 170.74 162.03" style="fill:#d1d2d4"/><polygon points="166.28 138.23 166.28 159.39 175.53 159.39 178.54 138.23 166.28 138.23" style="fill:#bdbec0"/><polygon points="161.81 159.39 170.74 159.39 172.2 138.23 160.35 138.23 161.81 159.39" style="fill:#d1d2d4"/><rect x="157.02" y="159.39" width="18.5" height="2.64" style="fill:#f39c20"/><rect x="507.51" y="235.09" width="254" height="76.61" style="fill:#f0c39b"/><rect x="5.62" y="189.79" width="501.88" height="121.9" style="fill:#f0c39b"/><rect x="5.62" y="189.79" width="501.88" height="121.9" style="fill:#f0c39b"/><rect y="178.93" width="513.13" height="2.72" style="fill:#785545"/><circle cx="253.64" cy="255.1" r="41.4" style="fill:#fff;stroke:#cc7f56;stroke-miterlimit:10;stroke-width:3.95093888044357px"/><ellipse cx="252.75" cy="245.83" rx="13.22" ry="16.97" transform="translate(-36.06 43.58) rotate(-9.2)" style="fill:#7e4e34"/><path d="M254.36,258.35s6.38-3,.42-10.35c-4.78-5.93-5.58-10.07-3.71-14.7,0,0-8.85,7.38,1.31,17.48C256.39,255.31,254.36,258.35,254.36,258.35Z" style="fill:#f3f2f3"/><path d="M255.39,262.6c7.21-1.11,11.89-9.5,10.44-18.76a19,19,0,0,0-7.14-12.48,17.73,17.73,0,0,1,3.37,13.85c-.78,5-4.07,8.81-8.36,9.89a25.49,25.49,0,0,1-9.92.5,7.43,7.43,0,0,1-1.47-.4C245.3,260.3,250.3,263.37,255.39,262.6Z" style="fill:#492e1b;opacity:0.5;isolation:isolate"/><path d="M282.53,239.42a3.93,3.93,0,0,0-1.72-1.94h0a12.81,12.81,0,0,0-4.44-1.47,3.17,3.17,0,0,1-1.33,2.42,2.12,2.12,0,0,1,.36.64c.52,1.55-1.49,3.53-5.17,5.49a66.72,66.72,0,0,1-15.29,5.38l-2.58.57A67.38,67.38,0,0,1,238.51,252c-4.39-.06-7.37-.87-7.89-2.42s2.88-4.16,8.87-6.9l.2-1.6c-7.21,2.56-13,6.54-14.49,9.15h0a3.32,3.32,0,0,0-.42,2.77c1.1,3.19,8.15,4.53,17.62,3.84a90.44,90.44,0,0,0,14.17-2.23A88,88,0,0,0,270,250.37c.7-.29,1.38-.59,2-.9C279.3,246.12,283.54,242.35,282.53,239.42Z" style="fill:#f39c20"/><path d="M268.6,236.69a1.85,1.85,0,0,1,.19-1.15c-1.93,0-4.11.05-6,.19l.67,1.09C265.3,236.69,267.25,236.66,268.6,236.69Z" style="fill:#f39c20"/><path d="M282.53,239.42a3.93,3.93,0,0,0-1.72-1.94c3.94,4.46-2.68,8.64-12.44,12.4a89.6,89.6,0,0,1-22.74,5.74c-23.39,2.48-20.54-5.18-20.46-5.37a3.31,3.31,0,0,0-.42,2.76c1.1,3.2,8.15,4.53,17.62,3.85a91.34,91.34,0,0,0,14.16-2.24A88.9,88.9,0,0,0,270,250.36c.7-.3,1.38-.59,2-.9C279.3,246.12,283.54,242.35,282.53,239.42Z" style="fill:#f4bd7e"/><path id="_Pfad_" data-name=" Pfad " d="M229.58,248.92c-8.18,7.07,18.27,6,27,1.83C237.73,254.93,226.52,252.64,229.58,248.92Z" style="fill:#f4bd7e"/><ellipse cx="272.41" cy="236.28" rx="3.47" ry="2.64" transform="translate(-21.24 26.99) rotate(-5.46)" style="fill:#7e4e34"/><path d="M270,237.31s1,1,2.05-.52c.88-1.26,1.64-1.66,2.66-1.59,0,0-2-1.25-3.35,1.28-.65,1.05-1.36.83-1.36.83Z" style="fill:#fff"/><path d="M231.05,273.33a1,1,0,0,1-.34-.06.67.67,0,0,1-.25-.13c-.06,0-.08-.09-.06-.12s.06-.06.17-.06a1.31,1.31,0,0,0,.68-.34,7.58,7.58,0,0,0,1-.89c.36-.37.73-.77,1.11-1.24a14.28,14.28,0,0,0,1-1.43,10.74,10.74,0,0,0,.76-1.42,3.46,3.46,0,0,0,.29-1.26c0-.14-.07-.2-.21-.2a2.64,2.64,0,0,0-1.14.48,16.39,16.39,0,0,0-1.78,1.32,27.68,27.68,0,0,0-2.06,1.94,18.45,18.45,0,0,0-2,2.36,14.14,14.14,0,0,0-1.45,2.54,6.5,6.5,0,0,0-.58,2.53,2.59,2.59,0,0,0,.09.68,1.5,1.5,0,0,0,.33.59,1.92,1.92,0,0,0,.64.42,2.58,2.58,0,0,0,1,.15,5.72,5.72,0,0,0,1.92-.31,7.26,7.26,0,0,0,1.6-.74,8.4,8.4,0,0,0,1.27-.95c.37-.34.68-.63.93-.9l.56-.59c.12-.14.18-.14.18,0a1.33,1.33,0,0,1-.18.45,6.58,6.58,0,0,1-.55.86,9.62,9.62,0,0,1-.85,1.06,6.24,6.24,0,0,1-1.16,1,6.42,6.42,0,0,1-1.46.78,4.93,4.93,0,0,1-1.71.31,3.77,3.77,0,0,1-1.11-.22,3.7,3.7,0,0,1-1.29-.71,4.07,4.07,0,0,1-1.51-3.32,5.89,5.89,0,0,1,.56-2.37A15.7,15.7,0,0,1,227,271a21,21,0,0,1,1.95-2.37,22.51,22.51,0,0,1,2.14-2,15.31,15.31,0,0,1,1.95-1.38,3.33,3.33,0,0,1,1.43-.53,1.39,1.39,0,0,1,.5.19,4.46,4.46,0,0,1,.74.48,4.31,4.31,0,0,1,.67.68,1.2,1.2,0,0,1,.29.78,2.85,2.85,0,0,1-.26,1,12.8,12.8,0,0,1-.68,1.33,16.58,16.58,0,0,1-1,1.48,10.17,10.17,0,0,1-1.2,1.34,7.55,7.55,0,0,1-1.27,1A2.45,2.45,0,0,1,231.05,273.33Z" style="fill:#7e4e34"/><path d="M235.92,277.05a1.29,1.29,0,0,1-.5-.14,2.29,2.29,0,0,1-.59-.38,2.14,2.14,0,0,1-.49-.63,1.72,1.72,0,0,1-.2-.83,1.9,1.9,0,0,1,.15-.78,4.19,4.19,0,0,1,.39-.76,5.54,5.54,0,0,1,.57-.71c.22-.22.44-.44.67-.64a2.77,2.77,0,0,1,.26-.73,3.28,3.28,0,0,1,1.31-1.3,1.75,1.75,0,0,1,.93-.22,1.45,1.45,0,0,1,.45.13,1.79,1.79,0,0,1,.54.37,2.58,2.58,0,0,1,.48.62,1.64,1.64,0,0,1,.2.87,4.19,4.19,0,0,1-.4,1.7,9,9,0,0,1-1,1.68,6,6,0,0,1-1.34,1.27A2.85,2.85,0,0,1,235.92,277.05Zm-.33-.54a2,2,0,0,0,.93-.4,6.37,6.37,0,0,0,1.23-1.09,7.28,7.28,0,0,0,1.06-1.58,4.32,4.32,0,0,0,.44-1.91,2.09,2.09,0,0,0,0-.25,1.07,1.07,0,0,0-.06-.31.66.66,0,0,0-.16-.26.46.46,0,0,0-.31-.13.78.78,0,0,0-.49.25,2.45,2.45,0,0,0-.53.67,1.36,1.36,0,0,1,.53.22.92.92,0,0,1,.31.31,1,1,0,0,1,.12.28c0,.07,0,.12-.06.12a.1.1,0,0,1-.08-.05s-.09,0-.22,0a1,1,0,0,0-.49.21c-.24.19-.47.38-.69.59v.17a1,1,0,0,0,0,.24.4.4,0,0,1,0,.15c0,.06,0,.1-.15.08a1,1,0,0,1-.36-.16,9.45,9.45,0,0,0-1,1.32,2.18,2.18,0,0,0-.41,1.18,1.09,1.09,0,0,0,0,.25c0,.09.12.14.27.14Z" style="fill:#7e4e34"/><path d="M245.68,266.3a1.22,1.22,0,0,1,.45.13,1.88,1.88,0,0,1,.43.31.92.92,0,0,1,.26.35.23.23,0,0,1,0,.3,18.81,18.81,0,0,0-2.23,2.74,35.08,35.08,0,0,0-1.95,3.26,5.59,5.59,0,0,0,1.56-.25,3.78,3.78,0,0,0,1.38-.71c.14-.09.2-.17.2-.22a.2.2,0,0,1,.08-.15s.09,0,.11.06a.63.63,0,0,1,0,.31,1.24,1.24,0,0,1-.11.42.8.8,0,0,1-.28.37,2.69,2.69,0,0,1-.65.34,4.71,4.71,0,0,1-.91.25,7.9,7.9,0,0,1-1.68.09.39.39,0,0,0-.06.13.45.45,0,0,1-.06.12,3.34,3.34,0,0,1,.21.68,5.82,5.82,0,0,1,.11,1.18,6,6,0,0,1-.26,1.74,9.94,9.94,0,0,1-.67,1.66,7.11,7.11,0,0,1-.83,1.27,1.6,1.6,0,0,1-.81.58h-.09a.65.65,0,0,1-.36-.1,2,2,0,0,1-.4-.23,1.64,1.64,0,0,1-.33-.31.52.52,0,0,1-.12-.34,9.25,9.25,0,0,1,.62-3.21,32,32,0,0,1,1.52-3.63.53.53,0,0,1-.17-.25c0-.06.12-.14.43-.23.45-.89.91-1.72,1.38-2.52a24.56,24.56,0,0,1,1.37-2.09,15.55,15.55,0,0,1,1.13-1.44C245.29,266.49,245.52,266.3,245.68,266.3ZM242,276a4.11,4.11,0,0,0-.15-1.1,25.74,25.74,0,0,0-1.34,3.31,7.82,7.82,0,0,0-.48,2.31.5.5,0,0,0,0,.17,1.14,1.14,0,0,0,.57-.5,6.15,6.15,0,0,0,.64-1.15,13.3,13.3,0,0,0,.52-1.5A6.66,6.66,0,0,0,242,276Z" style="fill:#7e4e34"/><path d="M249.63,266.3a1.17,1.17,0,0,1,.45.13,1.94,1.94,0,0,1,.44.31,1,1,0,0,1,.26.35.24.24,0,0,1,0,.3,18.18,18.18,0,0,0-2.23,2.74,35.18,35.18,0,0,0-2,3.26,5.6,5.6,0,0,0,1.57-.25,3.94,3.94,0,0,0,1.38-.71c.14-.09.2-.17.2-.22a.18.18,0,0,1,.08-.15s.09,0,.11.06a.78.78,0,0,1,0,.31,1.53,1.53,0,0,1-.11.42.87.87,0,0,1-.28.37,2.69,2.69,0,0,1-.65.34,5,5,0,0,1-.92.25,7.8,7.8,0,0,1-1.67.09.4.4,0,0,0-.07.13.27.27,0,0,1-.06.12,3.37,3.37,0,0,1,.22.68,5.82,5.82,0,0,1,.11,1.18,5.7,5.7,0,0,1-.27,1.74,10.83,10.83,0,0,1-.66,1.66,6.66,6.66,0,0,1-.84,1.27,1.56,1.56,0,0,1-.81.58h-.09a.68.68,0,0,1-.36-.1,2,2,0,0,1-.4-.23,2.42,2.42,0,0,1-.33-.31.58.58,0,0,1-.12-.34,9.49,9.49,0,0,1,.62-3.21,36.11,36.11,0,0,1,1.52-3.63.53.53,0,0,1-.17-.25c0-.06.12-.14.44-.23.44-.89.91-1.72,1.38-2.52a24.63,24.63,0,0,1,1.36-2.09c.36-.5.73-1,1.13-1.44S249.49,266.3,249.63,266.3ZM246,276a3.75,3.75,0,0,0-.16-1.1,27.22,27.22,0,0,0-1.33,3.31,7.5,7.5,0,0,0-.48,2.31,1,1,0,0,0,0,.17,1.11,1.11,0,0,0,.58-.5,6.73,6.73,0,0,0,.63-1.15,13.35,13.35,0,0,0,.53-1.5A6.66,6.66,0,0,0,246,276Z" style="fill:#7e4e34"/><path d="M254.35,273.55a13.43,13.43,0,0,1-.95,1.05,14.83,14.83,0,0,1-1.16,1.09,8,8,0,0,1-1.21.85,2.29,2.29,0,0,1-1.1.34,1.36,1.36,0,0,1-.55-.17,2.48,2.48,0,0,1-.59-.43,3.79,3.79,0,0,1-.48-.58,1.34,1.34,0,0,1-.2-.63,2.59,2.59,0,0,1,.2-1,7.06,7.06,0,0,1,.53-1,8.38,8.38,0,0,1,.71-.95c.27-.29.52-.54.76-.77s.42-.36.64-.53a1,1,0,0,1,.39-.2,1.15,1.15,0,0,1,.57.17,2.44,2.44,0,0,1,.54.4,2.28,2.28,0,0,1,.42.5.77.77,0,0,1,.17.43,1.75,1.75,0,0,1-.31.83,5.15,5.15,0,0,1-.76.86,5.52,5.52,0,0,1-.91.7,1.63,1.63,0,0,1-.79.3.43.43,0,0,1-.25-.07.59.59,0,0,1-.2-.15,6.29,6.29,0,0,0-.3.71,3.22,3.22,0,0,0-.11.62.55.55,0,0,0,.07.31.18.18,0,0,0,.15.11,2.44,2.44,0,0,0,1.12-.31,7,7,0,0,0,1.18-.77,11.65,11.65,0,0,0,1.11-1c.36-.35.67-.68.92-1Zm-2-1.79a.91.91,0,0,0-.5.22,4.19,4.19,0,0,0-.62.57c-.23.27-.43.53-.63.81s-.41.61-.58.92a2.68,2.68,0,0,0,1-.52,5.63,5.63,0,0,0,.91-.85,2.86,2.86,0,0,0,.56-.81C252.56,271.87,252.52,271.76,252.33,271.76Z" style="fill:#7e4e34"/><path d="M259.64,273.55a13.43,13.43,0,0,1-.95,1.05,14.83,14.83,0,0,1-1.16,1.09,8.49,8.49,0,0,1-1.21.85,2.29,2.29,0,0,1-1.1.34,1.36,1.36,0,0,1-.55-.17,2.48,2.48,0,0,1-.59-.43,3.79,3.79,0,0,1-.48-.58,1.34,1.34,0,0,1-.2-.63,2.59,2.59,0,0,1,.2-1,7.06,7.06,0,0,1,.53-1,8.38,8.38,0,0,1,.71-.95c.27-.29.52-.54.76-.77s.42-.36.64-.53a1,1,0,0,1,.39-.2,1.15,1.15,0,0,1,.57.17,2.44,2.44,0,0,1,.54.4,2.28,2.28,0,0,1,.42.5.77.77,0,0,1,.17.43,1.75,1.75,0,0,1-.31.83,5.15,5.15,0,0,1-.76.86,5.52,5.52,0,0,1-.91.7,1.63,1.63,0,0,1-.79.3.43.43,0,0,1-.25-.07.59.59,0,0,1-.2-.15,6.29,6.29,0,0,0-.3.71,3.22,3.22,0,0,0-.11.62.55.55,0,0,0,.07.31.18.18,0,0,0,.15.11A2.44,2.44,0,0,0,256,276a7.46,7.46,0,0,0,1.18-.77,13,13,0,0,0,1.11-1c.36-.35.67-.68.92-1Zm-2-1.79a.91.91,0,0,0-.5.22,3.75,3.75,0,0,0-.62.57c-.23.27-.44.53-.64.81s-.4.61-.57.92a2.64,2.64,0,0,0,1-.52,5.69,5.69,0,0,0,.92-.85,2.83,2.83,0,0,0,.55-.81c.11-.23.08-.34-.1-.34Z" style="fill:#7e4e34"/><path d="M267.08,276.77a.85.85,0,0,0,.06.36.25.25,0,0,0,.13.12l.12.08a.22.22,0,0,1,.06.17c0,.14-.1.2-.31.19a1.69,1.69,0,0,1-.66-.2,2.28,2.28,0,0,1-.67-.53,1.2,1.2,0,0,1-.31-.81,5.4,5.4,0,0,1,.14-1c.09-.39.22-.81.37-1.28s.33-.91.53-1.38.39-.91.59-1.32c-.34.41-.75.87-1.18,1.42s-.9,1.11-1.37,1.72l-1.36,1.8c-.45.59-.85,1.16-1.19,1.67s-.64,1-.86,1.34a2.14,2.14,0,0,0-.32.74c0,.26-.08.39-.25.4a.78.78,0,0,1-.53-.21,3.11,3.11,0,0,1-.53-.62,1.55,1.55,0,0,1-.24-.78,2.68,2.68,0,0,1,.29-1c.2-.45.47-1,.79-1.58s.7-1.27,1.12-2,.84-1.43,1.27-2.14.85-1.44,1.27-2.14.79-1.35,1.12-1.94.59-1.1.79-1.52a2.47,2.47,0,0,0,.29-.91.44.44,0,0,0-.15-.39.78.78,0,0,0-.53-.14,3.24,3.24,0,0,0-1.33.31,7.4,7.4,0,0,0-1.37.84,11.43,11.43,0,0,0-2.32,2.49,8.12,8.12,0,0,0-.73,1.28,2.67,2.67,0,0,0-.27,1,.48.48,0,0,0,.1.35.28.28,0,0,0,.2.1l.2.07a.13.13,0,0,1,.09.15c0,.14-.11.2-.31.22a1.38,1.38,0,0,1-.66-.17,1.79,1.79,0,0,1-.67-.58,1.34,1.34,0,0,1-.31-.94,3.54,3.54,0,0,1,.26-1.2,6.25,6.25,0,0,1,.72-1.35,9.59,9.59,0,0,1,1-1.33,8.08,8.08,0,0,1,1.33-1.15,7.39,7.39,0,0,1,1.49-.8,4,4,0,0,1,1.55-.31,2.32,2.32,0,0,1,1,.23,4.13,4.13,0,0,1,1.68,1.3,1.29,1.29,0,0,1,.28.73,3.49,3.49,0,0,1-.34,1.35,18.39,18.39,0,0,1-.86,1.72c-.34.62-.74,1.27-1.17,2s-.89,1.4-1.32,2.1-.86,1.39-1.24,2.07a18.77,18.77,0,0,0-1,2c.3-.45.66-1,1.06-1.52s.82-1.17,1.27-1.75.88-1.2,1.33-1.77.87-1.09,1.26-1.54a11.81,11.81,0,0,1,1-1.08,1.3,1.3,0,0,1,.67-.42h0a.56.56,0,0,1,.29.06,1.38,1.38,0,0,1,.69.53,1.36,1.36,0,0,1,.26.69,1.27,1.27,0,0,1-.19.5c-.12.25-.28.54-.46.9s-.39.74-.62,1.16a11.7,11.7,0,0,0-.62,1.29,10.24,10.24,0,0,0-.47,1.27A6.68,6.68,0,0,0,267.08,276.77Z" style="fill:#f39c20"/><path d="M275,273.55a11.57,11.57,0,0,1-.94,1.05,13.36,13.36,0,0,1-1.17,1.09,7.49,7.49,0,0,1-1.21.85,2.22,2.22,0,0,1-1.1.34,1.36,1.36,0,0,1-.54-.17,2.29,2.29,0,0,1-.59-.43,3.29,3.29,0,0,1-.48-.58,1.24,1.24,0,0,1-.2-.63,2.59,2.59,0,0,1,.2-1,7.06,7.06,0,0,1,.53-1,7.34,7.34,0,0,1,.71-.95c.26-.29.51-.54.76-.77a8.18,8.18,0,0,1,.64-.53.93.93,0,0,1,.38-.2,1.16,1.16,0,0,1,.58.17,2.44,2.44,0,0,1,.54.4,2.28,2.28,0,0,1,.42.5.85.85,0,0,1,.17.43,1.75,1.75,0,0,1-.31.83,5.64,5.64,0,0,1-.76.86,5.52,5.52,0,0,1-.91.7,1.7,1.7,0,0,1-.8.3.4.4,0,0,1-.24-.07.74.74,0,0,1-.21-.15c-.1.23-.21.47-.29.71a3.22,3.22,0,0,0-.11.62.64.64,0,0,0,.06.31.21.21,0,0,0,.16.11,2.4,2.4,0,0,0,1.11-.31,7,7,0,0,0,1.18-.77,13.13,13.13,0,0,0,1.12-1c.36-.35.67-.68.92-1Zm-2-1.79a.91.91,0,0,0-.5.22,4.19,4.19,0,0,0-.62.57c-.23.27-.43.53-.64.81s-.4.61-.57.92a2.64,2.64,0,0,0,1-.52,5.69,5.69,0,0,0,.92-.85,2.86,2.86,0,0,0,.56-.81C273.24,271.87,273.19,271.76,273,271.76Z" style="fill:#f39c20"/><path d="M281.45,266.75a.69.69,0,0,1,.45.3,2.53,2.53,0,0,1,.34.57,1,1,0,0,1,.07.54c0,.16-.15.24-.35.21a1.33,1.33,0,0,1-.45-.08l-.44-.13-.65-.17c-.26-.06-.63-.12-1.08-.18a30,30,0,0,0-1.68,2.77c-.54,1-1,1.94-1.44,2.89a23.65,23.65,0,0,0-1,2.65,7.45,7.45,0,0,0-.39,2.05c0,.15,0,.23.06.25s.07.08.07.17-.08.14-.22.11a1.4,1.4,0,0,1-.48-.22,1.79,1.79,0,0,1-.48-.51,1.48,1.48,0,0,1-.22-.81,7.55,7.55,0,0,1,.34-2,22.34,22.34,0,0,1,.9-2.45c.37-.87.78-1.74,1.24-2.62s.93-1.71,1.4-2.48c-.78-.08-1.44-.13-2-.16l-1.35-.08-.8,0h-.38a.34.34,0,0,1-.17-.05l-.11-.08a.24.24,0,0,1-.07-.12c0-.06.17-.11.49-.16s.76-.07,1.29-.1,1.1-.07,1.75-.08l1.91-.05c.28-.42.54-.81.79-1.15s.5-.65.72-.9a5.48,5.48,0,0,1,.59-.59.65.65,0,0,1,.43-.21,1.25,1.25,0,0,1,.54.12,1.07,1.07,0,0,1,.41.28.81.81,0,0,1,.21.33.29.29,0,0,1,0,.24,10.61,10.61,0,0,0-.78.86,10,10,0,0,0-.8,1.05c.27,0,.54,0,.77,0Z" style="fill:#f39c20"/><rect x="750.26" y="235.09" width="11.25" height="76.61" style="fill:#7e4e34"/><rect x="507.51" y="230.54" width="254" height="16.3" style="fill:#cc7f56"/><rect x="507.51" y="227.82" width="254" height="2.72" style="fill:#785545"/><rect x="8.86" y="175.14" width="6.42" height="3.79" rx="0.41" ry="0.41" style="fill:#231f20"/><path d="M115.23,158.39H92.89V86.79a1.24,1.24,0,0,0-1.24-1.24H10.11a1.25,1.25,0,0,0-1.25,1.24v90.28H115.23Z" style="fill:#d0d2d3"/><rect x="62.14" y="175.14" width="6.42" height="3.79" rx="0.41" ry="0.41" style="fill:#231f20"/><rect x="123.65" y="175.14" width="6.42" height="3.79" rx="0.41" ry="0.41" style="fill:#231f20"/><rect x="75.85" y="175.14" width="6.42" height="3.79" rx="0.41" ry="0.41" style="fill:#231f20"/><rect x="39.33" y="102.08" width="75.89" height="59.33" style="fill:#bbbdbf"/><rect x="88.33" y="123.39" width="6.86" height="2.89" style="fill:#a6a8ab"/><polygon points="91.76 122.06 88.33 122.06 88.33 122.06 88.33 124.95 88.33 124.95 91.76 124.95 95.19 124.95 95.19 122.06 91.76 122.06" style="fill:#808284"/><rect x="79.72" y="110.66" width="24.08" height="7.9" rx="0.92" ry="0.92" style="fill:#404042"/><path d="M100.88,116.43a.3.3,0,0,0,0-.1.91.91,0,0,0-.9-.73H83.56a.92.92,0,0,0-.92.92v6.07a.93.93,0,0,0,.92.92H100a.92.92,0,0,0,.92-.92v-6.07h0Z" style="fill:#d0d2d3"/><rect x="79.72" y="110.66" width="24.08" height="7.9" rx="0.92" ry="0.92" style="fill:#404042"/><rect x="75.49" y="101" width="32.54" height="10.68" rx="1.24" ry="1.24" style="fill:#dbdddd"/><rect x="75.49" y="107.81" width="32.54" height="1.55" style="fill:#ededed;mix-blend-mode:multiply"/><rect x="79.72" y="111.69" width="24.08" height="1.55" style="fill:#d0d2d3;mix-blend-mode:multiply"/><rect x="82.64" y="118.56" width="18.24" height="1.55" style="fill:#ededed;mix-blend-mode:multiply"/><path d="M135.13,86a1.53,1.53,0,0,0-1-.43H40.38A1.47,1.47,0,0,0,38.9,87v15a1.51,1.51,0,0,0,.43,1l4.24,4.24a1.49,1.49,0,0,0,1,.44h85.22a1.49,1.49,0,0,0,1-.44l4.24-4.24a1.51,1.51,0,0,0,.43-1V87A1.53,1.53,0,0,0,135.13,86Z" style="fill:#d0d2d3"/><path d="M135.11,86a1.53,1.53,0,0,0-1.05-.43H59.65v17.58l4.24,4.24a1.49,1.49,0,0,0,1,.44h64.88a1.49,1.49,0,0,0,1.05-.44l4.24-4.24a1.47,1.47,0,0,0,.43-1V87A1.48,1.48,0,0,0,135.11,86Z" style="fill:#e7e8e9"/><path d="M130.07,159.63v17.44H55a1.24,1.24,0,0,1-1.24-1.24v-16.2A1.23,1.23,0,0,1,55,158.39h73.84A1.23,1.23,0,0,1,130.07,159.63Z" style="fill:#e7e8e9"/><path d="M64.67,90a1,1,0,1,1-1.05-1A1,1,0,0,1,64.67,90Z" style="fill:#be202e"/><path d="M70.61,97.74h0l.29-.07h0l.27-.1h0l.26-.12h0l.25-.15,0,0a1.88,1.88,0,0,0,.24-.18h0a3.24,3.24,0,1,0-4.74-4.3v0l-.15.26v0a2.1,2.1,0,0,0-.13.26v0c0,.09-.07.19-.1.28v0a2.45,2.45,0,0,0-.08.29h0a2.72,2.72,0,0,0,0,.3h0c0,.1,0,.2,0,.3s0,.2,0,.3h0c0,.1,0,.2,0,.3h0a2.45,2.45,0,0,0,.08.29h0a2.31,2.31,0,0,0,.1.28v0c0,.09.08.18.13.27v0l.15.26h0a2.48,2.48,0,0,0,.19.26h0a3.48,3.48,0,0,0,.47.47h0a2,2,0,0,0,.25.18l0,0,.26.15h0a1.51,1.51,0,0,0,.26.12h0l.27.1h0l.29.07h0l.3,0h.62Z" style="fill:#6e6f70"/><path d="M128.82,93l.08,0,.11,0,.08,0,.1,0,.07,0,.11,0,.06,0,.11-.07,0,0,.12-.09,0,0,.12-.11h0a2,2,0,0,0-1.41-3.4,2,2,0,0,0-1.41.59h0l0,0-.09.1-.07.09,0,.07-.06.1,0,.06a1.17,1.17,0,0,1,0,.11l0,.07a.49.49,0,0,0,0,.11l0,.07,0,.13s0,0,0,.06a.9.9,0,0,0,0,.16v0a1.41,1.41,0,0,0,0,.41v0a.9.9,0,0,0,0,.16s0,0,0,.06l0,.13,0,.07a.49.49,0,0,0,0,.11l0,.07a1.17,1.17,0,0,1,0,.11l0,.06.06.1,0,.06a.36.36,0,0,0,.07.1l.06.07.07.07a.2.2,0,0,0,.07.06.46.46,0,0,0,.07.07l.09.07.07,0,.1.06.07,0,.09,0,.09,0,.09,0,.09,0,.1,0,.09,0,.12,0h.07a2.67,2.67,0,0,0,.4,0h.06Z" style="fill:#6e6f70"/><path d="M123,93l.09,0,.1,0,.08,0,.1,0,.08,0,.1,0,.06,0,.11-.06,0,0a.39.39,0,0,0,.1-.08l.05,0,.1-.1h0a2,2,0,0,0-1.41-3.4,2,2,0,0,0-1.41.59h0l0,0-.1.12-.06.08-.06.08a.56.56,0,0,1-.05.08.41.41,0,0,0,0,.09.2.2,0,0,0,0,.08.36.36,0,0,0,0,.09l0,.09a.3.3,0,0,0,0,.1s0,0,0,.08l0,.11s0,0,0,.08,0,.07,0,.11V91a.43.43,0,0,1,0,0,.43.43,0,0,0,0,0v.15s0,.07,0,.1,0,.06,0,.09l0,.11s0,.06,0,.08a.3.3,0,0,0,0,.1l0,.09a.36.36,0,0,0,0,.09.2.2,0,0,0,0,.08.22.22,0,0,0,0,.08l.05.09.06.08.06.08a.3.3,0,0,0,.08.08l.05.06a.46.46,0,0,0,.07.07l.07.06.1.08.06,0,.1.06.07,0,.1,0,.07,0,.11,0,.08,0,.11,0,.08,0,.13,0h.06a2.67,2.67,0,0,0,.4,0h.07Z" style="fill:#6e6f70"/><rect x="86.75" y="89.98" width="21.26" height="9.16" rx="0.41" ry="0.41" style="fill:#404042"/><path d="M107.6,89.76H87.17a.64.64,0,0,0-.64.63v8.33a.64.64,0,0,0,.64.64H107.6a.64.64,0,0,0,.63-.64V90.39A.63.63,0,0,0,107.6,89.76Zm0,9.16H87.17a.2.2,0,0,1-.2-.2V90.39a.2.2,0,0,1,.2-.19H107.6a.2.2,0,0,1,.19.19v8.33A.2.2,0,0,1,107.6,98.92Z" style="fill:#a6a8ab"/><path d="M43.57,107.37a1.49,1.49,0,0,0,1,.44h85.2a1.49,1.49,0,0,0,1.05-.44l4.24-4.24H39.33Z" style="fill:#ededed;mix-blend-mode:multiply"/><rect x="8.86" y="165.63" width="121.21" height="0.97" style="fill:#231f20"/><path d="M109.49,117.43h-6.23a1.84,1.84,0,0,1-1.84-1.84h0a1.84,1.84,0,0,1,1.84-1.84h6.23Z" style="fill:#a6a8ab"/><path d="M128.11,118.21H109.57a2.78,2.78,0,0,1-2.93-2.62h0a2.78,2.78,0,0,1,2.93-2.62h18.54a2.79,2.79,0,0,1,2.94,2.62h0A2.79,2.79,0,0,1,128.11,118.21Z" style="fill:#404042"/><path d="M101.27,152.21v-.13h1.65a3,3,0,0,0,3-3v-2.76a3,3,0,0,0-3-3h-1.65V142s0-.08,0-.11H81.8s0,.07,0,.11v10.2A6.19,6.19,0,0,0,88,158.39h7.1A6.19,6.19,0,0,0,101.27,152.21Zm3.16-3.55a1.94,1.94,0,0,1-1.94,1.93h-1.22v-5.68h1.22a1.94,1.94,0,0,1,1.94,1.94Z" style="fill:#fff"/><path d="M108.52,75.24v.13h-1.66a3,3,0,0,0-3,2.95v2.75a3,3,0,0,0,3,3h1.66v1.53H128s0-.07,0-.11V75.24a6.18,6.18,0,0,0-6.18-6.18H114.7A6.18,6.18,0,0,0,108.52,75.24Zm-3.17,3.55a1.93,1.93,0,0,1,1.94-1.93h1.23v5.68h-1.23a1.94,1.94,0,0,1-1.94-1.94Z" style="fill:#fff"/><path d="M79.16,75.24v.13H77.5a3,3,0,0,0-3,2.95v2.75a3,3,0,0,0,3,3h1.66v1.53H98.62s0-.07,0-.11V75.24a6.19,6.19,0,0,0-6.19-6.18h-7.1A6.18,6.18,0,0,0,79.16,75.24ZM76,78.79a1.93,1.93,0,0,1,1.94-1.93h1.23v5.68H77.93A1.94,1.94,0,0,1,76,80.6Z" style="fill:#fff"/><path d="M49.79,75.24v.13H48.13a3,3,0,0,0-3,2.95v2.75a3,3,0,0,0,3,3h1.66v1.42s0,.07,0,.11H69.26V75.24a6.18,6.18,0,0,0-6.18-6.18H56A6.18,6.18,0,0,0,49.79,75.24Zm-3.16,3.55a1.93,1.93,0,0,1,1.94-1.93h1.22v5.68H48.57a1.94,1.94,0,0,1-1.94-1.94Z" style="fill:#fff"/><path d="M20.43,75.24v.13H18.77a3,3,0,0,0-2.95,2.95v2.75a3,3,0,0,0,2.95,3h1.66v1.42s0,.07,0,.11H39.9V75.24a6.18,6.18,0,0,0-6.18-6.18H26.61A6.18,6.18,0,0,0,20.43,75.24Zm-3.16,3.55a1.92,1.92,0,0,1,1.93-1.93h1.23v5.68H19.2a1.93,1.93,0,0,1-1.93-1.94Z" style="fill:#fff"/><path d="M463.87,103.79l20.89,9.35,2.8,5.65,21.15-1.47a8.07,8.07,0,0,0-2.79-1.68s2-10.92,1.57-14Z" style="fill:#81808a"/><path d="M425.1,149.69l6.23-48.26a5.85,5.85,0,0,1,5.64-5h64.39a6.32,6.32,0,0,1,.77.06l0,0,6.3,1.67.17,7.93L506,102.46l-.81-.18-9.51,47.46a6.38,6.38,0,0,1-6,4.9H434.28l-1.71,1.45-4.52-1.66A4.25,4.25,0,0,1,425.1,149.69Z" style="fill:#bfc4cb"/><path d="M432.08,99.32A5.87,5.87,0,0,1,437,96.47h64.39a6.32,6.32,0,0,1,.77.06l0,0,6.3,1.67.17,7.93L506,102.46l-.81-.18-1.49,7.44c-10.28-.51-23.69-1.06-24.48-.8-1.27.42-41-9.11-41-9.11Z" style="fill:#fff"/><path d="M430.38,151.75a4.15,4.15,0,0,0,4.22,4.8h65.19a5.67,5.67,0,0,0,5.46-4.8l6.34-48.89a4.16,4.16,0,0,0-4.22-4.8H442.18a5.67,5.67,0,0,0-5.46,4.8Z" style="fill:#ecedec"/><g style="opacity:0.5"><polygon points="457.39 137.58 468.6 141.58 467.42 156.55 445.66 156.55 457.39 137.58" style="fill:#5c5a62"/></g><polygon points="456.13 149.51 460.94 164.65 490.7 164.65 480.97 138.18 457.39 137.58 456.13 149.51" style="fill:#bfc4cb"/><polygon points="457.39 137.58 465.75 164.36 492.16 164.36 482.53 137.58 457.39 137.58" style="fill:#fff"/><path d="M493.14,178.93V162.86a2.83,2.83,0,0,0-2.82-2.82H428.21a2.83,2.83,0,0,0-2.83,2.82v16.07Z" style="fill:#bfc4cb"/><path d="M513.13,178.93V163a2.94,2.94,0,0,0-2.94-2.93H446v18.89Z" style="fill:#f8faf7"/><rect y="197.94" width="11.25" height="113.75" style="fill:#7e4e34"/><polyline points="513.13 197.94 501.88 197.94 501.88 311.7 513.13 311.7 513.13 197.94" style="fill:#7e4e34"/><rect y="181.65" width="513.13" height="16.3" style="fill:#cc7f56"/><polygon points="72.32 197.94 103.08 197.94 96.63 181.65 65.87 181.65 72.32 197.94" style="fill:#edba8d;opacity:0.6000000000000001"/><polygon points="53.67 197.94 66.42 197.94 59.97 181.65 47.22 181.65 53.67 197.94" style="fill:#edba8d;opacity:0.6000000000000001"/><polygon points="408.04 197.94 420.79 197.94 414.33 181.65 401.58 181.65 408.04 197.94" style="fill:#edba8d;opacity:0.6000000000000001"/><polygon points="560.22 246.83 590.99 246.83 584.53 230.54 553.77 230.54 560.22 246.83" style="fill:#edba8d;opacity:0.6000000000000001"/><polygon points="541.57 246.83 554.32 246.83 547.87 230.54 535.12 230.54 541.57 246.83" style="fill:#edba8d;opacity:0.6000000000000001"/></g></g></g></svg>